<svg width="35" height="38" viewBox="0 0 35 38" fill="none" xmlns="http://www.w3.org/2000/svg">
<path d="M24.0544 5.67145C21.2329 5.67145 18.8219 7.8502 17.4973 9.35228C16.1727 7.8502 13.7671 5.67145 10.9469 5.67145C6.08598 5.67145 2.69232 9.34207 2.69232 14.5964C2.69232 20.386 6.90713 24.1281 10.9846 27.7477C12.9096 29.4583 14.9019 31.2258 16.4298 33.1858C16.6869 33.5139 17.0639 33.7035 17.4596 33.7035H17.5377C17.9348 33.7035 18.3104 33.5125 18.5662 33.1858C20.0967 31.2258 22.0877 29.4569 24.0141 27.7477C28.0902 24.1296 32.3077 20.3875 32.3077 14.5964C32.3077 9.34207 28.914 5.67145 24.0544 5.67145Z" fill="#387A88"/>
</svg>
