<svg width="44" height="44" viewBox="0 0 44 44" fill="none" xmlns="http://www.w3.org/2000/svg">
<g clip-path="url(#clip0_50_447)">
<path d="M4.54313 20.6171H1.38295C0.619167 20.6171 0 21.2363 0 22C0 22.7638 0.619169 23.383 1.38295 23.383H4.54313C5.30691 23.383 5.92608 22.7638 5.92608 22C5.92608 21.2363 5.30691 20.6171 4.54313 20.6171Z" fill="#387A88"/>
<path d="M42.617 20.6171H39.4583C38.6945 20.6171 38.0754 21.2363 38.0754 22C38.0754 22.7638 38.6945 23.383 39.4583 23.383H42.617C43.3808 23.383 44 22.7638 44 22C44 21.2363 43.3808 20.6171 42.617 20.6171Z" fill="#387A88"/>
<path d="M3.45358 31.1102C2.79197 31.4922 2.5652 32.3381 2.94704 32.9998C3.32899 33.6616 4.17521 33.8884 4.83695 33.5063L7.57249 31.9267C8.23398 31.5448 8.46064 30.6989 8.07878 30.0374C7.69687 29.3758 6.85091 29.149 6.1893 29.531L3.45358 31.1102Z" fill="#387A88"/>
<path d="M40.5466 12.889C41.2081 12.5071 41.4347 11.6612 41.0528 10.9997C40.6709 10.3381 39.8249 10.1115 39.1634 10.4935L36.4274 12.0733C35.766 12.4552 35.5393 13.301 35.9212 13.9625C36.3031 14.6241 37.1491 14.8508 37.8106 14.4688L40.5466 12.889Z" fill="#387A88"/>
<path d="M10.4942 39.1633C10.1122 39.8249 10.3388 40.6709 11.0004 41.0528C11.662 41.4347 12.5078 41.2081 12.8898 40.5466L14.4695 37.8107C14.8516 37.1491 14.6248 36.3031 13.9632 35.9212C13.3017 35.5393 12.4559 35.766 12.074 36.4274L10.4942 39.1633Z" fill="#387A88"/>
<path d="M33.5069 4.83735C33.8891 4.17542 33.6621 3.32896 33.0001 2.947C32.3382 2.56518 31.4922 2.79211 31.1103 3.45388L29.5316 6.18935C29.1498 6.85097 29.3765 7.69684 30.0381 8.07873C30.6997 8.46062 31.5456 8.23396 31.9275 7.57244L33.5069 4.83735Z" fill="#387A88"/>
<path d="M23.3837 42.617V39.4576C23.3837 38.6939 22.7645 38.0747 22.0007 38.0747C21.2369 38.0747 20.6178 38.6939 20.6178 39.4576V42.617C20.6178 43.3808 21.2369 44 22.0007 44C22.7645 44 23.3837 43.3808 23.3837 42.617Z" fill="#387A88"/>
<path d="M23.3837 4.54236V1.38295C23.3837 0.619168 22.7645 0 22.0007 0C21.2369 0 20.6178 0.619167 20.6178 1.38295V4.54236C20.6178 5.30614 21.2369 5.9253 22.0007 5.9253C22.7645 5.9253 23.3837 5.30614 23.3837 4.54236Z" fill="#387A88"/>
<path d="M30.0381 35.9213C29.3765 36.3032 29.1498 37.149 29.5316 37.8107L31.1102 40.5461C31.4922 41.2079 32.3382 41.4348 33.0001 41.0529C33.6622 40.671 33.8891 39.8245 33.5069 39.1626L31.9276 36.4275C31.5456 35.766 30.6997 35.5394 30.0381 35.9213Z" fill="#387A88"/>
<path d="M13.9632 8.07882C14.6249 7.69691 14.8516 6.8509 14.4695 6.18932L12.8898 3.45336C12.5078 2.79188 11.662 2.56523 11.0005 2.94711C10.3389 3.32904 10.1122 4.17504 10.4942 4.83662L12.074 7.57256C12.4559 8.23402 13.3017 8.46067 13.9632 8.07882Z" fill="#387A88"/>
<path d="M35.9212 30.0374C35.5394 30.699 35.766 31.5448 36.4275 31.9268L39.163 33.5063C39.8247 33.8884 40.6709 33.6616 41.0529 32.9998C41.4348 32.3381 41.208 31.4922 40.5464 31.1102L37.8107 29.531C37.1491 29.149 36.3031 29.3758 35.9212 30.0374Z" fill="#387A88"/>
<path d="M8.0788 13.9625C8.46065 13.301 8.23401 12.4552 7.57257 12.0733L4.83656 10.4935C4.175 10.1115 3.32903 10.3381 2.9471 10.9997C2.56523 11.6612 2.79187 12.5071 3.45333 12.889L6.18935 14.4688C6.85092 14.8508 7.69689 14.6241 8.0788 13.9625Z" fill="#387A88"/>
<path d="M22.0008 8.58739C14.5924 8.58739 8.58817 14.5924 8.58817 22C8.58817 29.4076 14.5924 35.4126 22.0008 35.4126C29.4076 35.4126 35.4134 29.4075 35.4134 22C35.4134 14.5924 29.4076 8.58739 22.0008 8.58739Z" fill="#348698"/>
</g>
<defs>
<clipPath id="clip0_50_447">
<rect width="44" height="44" fill="white"/>
</clipPath>
</defs>
</svg>
