<svg width="35" height="38" viewBox="0 0 35 38" fill="none" xmlns="http://www.w3.org/2000/svg">
<path fill-rule="evenodd" clip-rule="evenodd" d="M34.8333 9.5H0V7.91667C0 5.29332 2.12665 3.16667 4.75 3.16667H6.33333V1.58333C6.33333 0.708882 7.04222 0 7.91667 0C8.79111 0 9.5 0.708882 9.5 1.58333V3.16667H25.3333V1.58333C25.3333 0.708882 26.0422 0 26.9167 0C27.7911 0 28.5 0.708882 28.5 1.58333V3.16667H30.0833C32.7068 3.16667 34.8333 5.29332 34.8333 7.91667V9.5ZM34.8333 12.6667V33.25C34.8333 35.8734 32.7068 38 30.0833 38H4.75C2.12665 38 0 35.8734 0 33.25V12.6667H34.8333ZM7.91667 28.5C7.04222 28.5 6.33333 29.2089 6.33333 30.0833C6.33333 30.9578 7.04222 31.6667 7.91667 31.6667C8.79111 31.6667 9.5 30.9578 9.5 30.0833C9.5 29.2089 8.79111 28.5 7.91667 28.5ZM14.25 28.5C13.3755 28.5 12.6667 29.2089 12.6667 30.0833C12.6667 30.9578 13.3755 31.6667 14.25 31.6667C15.1245 31.6667 15.8333 30.9578 15.8333 30.0833C15.8333 29.2089 15.1245 28.5 14.25 28.5ZM20.5833 28.5C19.7089 28.5 19 29.2089 19 30.0833C19 30.9578 19.7089 31.6667 20.5833 31.6667C21.4578 31.6667 22.1667 30.9578 22.1667 30.0833C22.1667 29.2089 21.4578 28.5 20.5833 28.5ZM7.91667 22.1667C7.04222 22.1667 6.33333 22.8755 6.33333 23.75C6.33333 24.6245 7.04222 25.3333 7.91667 25.3333C8.79111 25.3333 9.5 24.6245 9.5 23.75C9.5 22.8755 8.79111 22.1667 7.91667 22.1667ZM14.25 22.1667C13.3755 22.1667 12.6667 22.8755 12.6667 23.75C12.6667 24.6245 13.3755 25.3333 14.25 25.3333C15.1245 25.3333 15.8333 24.6245 15.8333 23.75C15.8333 22.8755 15.1245 22.1667 14.25 22.1667ZM20.5833 22.1667C19.7089 22.1667 19 22.8755 19 23.75C19 24.6245 19.7089 25.3333 20.5833 25.3333C21.4578 25.3333 22.1667 24.6245 22.1667 23.75C22.1667 22.8755 21.4578 22.1667 20.5833 22.1667ZM7.91667 15.8333C7.04222 15.8333 6.33333 16.5422 6.33333 17.4167C6.33333 18.2911 7.04222 19 7.91667 19C8.79111 19 9.5 18.2911 9.5 17.4167C9.5 16.5422 8.79111 15.8333 7.91667 15.8333ZM14.25 15.8333C13.3755 15.8333 12.6667 16.5422 12.6667 17.4167C12.6667 18.2911 13.3755 19 14.25 19C15.1245 19 15.8333 18.2911 15.8333 17.4167C15.8333 16.5422 15.1245 15.8333 14.25 15.8333ZM20.5833 15.8333C19.7089 15.8333 19 16.5422 19 17.4167C19 18.2911 19.7089 19 20.5833 19C21.4578 19 22.1667 18.2911 22.1667 17.4167C22.1667 16.5422 21.4578 15.8333 20.5833 15.8333ZM26.9167 28.5C26.0422 28.5 25.3333 29.2089 25.3333 30.0833C25.3333 30.9578 26.0422 31.6667 26.9167 31.6667C27.7911 31.6667 28.5 30.9578 28.5 30.0833C28.5 29.2089 27.7911 28.5 26.9167 28.5ZM26.9167 22.1667C26.0422 22.1667 25.3333 22.8755 25.3333 23.75C25.3333 24.6245 26.0422 25.3333 26.9167 25.3333C27.7911 25.3333 28.5 24.6245 28.5 23.75C28.5 22.8755 27.7911 22.1667 26.9167 22.1667ZM26.9167 15.8333C26.0422 15.8333 25.3333 16.5422 25.3333 17.4167C25.3333 18.2911 26.0422 19 26.9167 19C27.7911 19 28.5 18.2911 28.5 17.4167C28.5 16.5422 27.7911 15.8333 26.9167 15.8333Z" fill="#387A88"/>
</svg>
