<svg width="30" height="35" viewBox="0 0 30 35" fill="none" xmlns="http://www.w3.org/2000/svg">
<path d="M28.1055 25.3811C25.473 25.5426 22.8512 24.9216 20.5586 23.5937C18.2661 22.2657 16.4015 20.288 15.1917 17.9009C13.9287 15.5425 13.3654 12.8612 13.5702 10.1828C13.775 7.50442 14.7392 4.94431 16.3456 2.81365C16.5521 2.54874 16.6781 2.22806 16.7079 1.89112C16.7377 1.55418 16.6701 1.21572 16.5133 0.917457C16.3593 0.623272 16.1252 0.380599 15.8391 0.218531C15.5531 0.0564632 15.2272 -0.0181201 14.9006 0.00372352C12.6953 0.157005 10.5468 0.783774 8.59614 1.84287C4.72609 4.03875 1.868 7.70743 0.647772 12.0455C-0.572454 16.3835 -0.0553562 21.0374 2.08582 24.9879C4.09816 29.0081 7.59241 32.052 11.8034 33.4532C16.0143 34.8544 20.5987 34.4985 24.5526 32.4636C26.5068 31.4112 28.2202 29.9496 29.5805 28.1748C29.7813 27.9114 29.9033 27.5947 29.9318 27.2625C29.9603 26.9304 29.8941 26.5969 29.7413 26.302C29.5866 26.0027 29.3493 25.756 29.0586 25.5923C28.7679 25.4287 28.4366 25.3553 28.1055 25.3811Z" fill="#387A88"/>
</svg>
