<svg width="50" height="49" viewBox="0 0 50 49" fill="none" xmlns="http://www.w3.org/2000/svg">
<path d="M18.4863 1.59059C17.7246 1.59059 17.1192 2.18012 17.1192 2.93044C17.1192 3.68075 17.7246 4.27028 18.4863 4.27028C19.2481 4.27028 19.8535 3.68075 19.8535 2.93044C19.8535 2.18012 19.2481 1.59059 18.4863 1.59059ZM21.2891 2.07868C21.3672 2.34952 21.416 2.63567 21.416 2.93044C21.416 3.22807 21.3672 3.51614 21.2891 3.78889C21.9043 3.8243 22.5391 3.88172 23.2031 3.96211C23.1738 3.81186 23.1641 3.65874 23.1641 3.50178C23.1641 3.06251 23.2617 2.64524 23.4375 2.26626C22.6953 2.17725 21.9824 2.11504 21.2891 2.07868ZM26.4844 2.16194C25.7227 2.16194 25.1172 2.75147 25.1172 3.50178C25.1172 4.25209 25.7227 4.84163 26.4844 4.84163C27.2461 4.84163 27.8516 4.25209 27.8516 3.50178C27.8516 2.75147 27.2461 2.16194 26.4844 2.16194ZM15.2051 2.47967C14.209 2.68065 13.2715 2.94479 12.4121 3.26348C12.793 3.6951 13.0567 4.23008 13.1445 4.81866C13.8574 4.56026 14.6192 4.3411 15.4395 4.16979C15.2637 3.78985 15.166 3.37067 15.166 2.93044C15.166 2.77731 15.1758 2.62706 15.2051 2.47967ZM29.4141 3.49795V3.50752C29.4141 4.11141 29.2285 4.6751 28.916 5.1517C29.3262 5.26559 29.7266 5.38618 30.1465 5.51538L30.1563 5.52495H30.1758C30.3125 5.56227 30.4492 5.60055 30.586 5.63788C30.6152 5.03399 30.8301 4.47413 31.1719 4.00997C31.0059 3.96211 30.8301 3.91522 30.6543 3.86833C30.2344 3.73721 29.8242 3.61663 29.4141 3.50083V3.49795ZM10.2442 3.92001C9.48439 3.92001 8.88283 4.50954 8.88283 5.25985C8.88283 6.01016 9.48439 6.59969 10.2442 6.59969C11.0059 6.59969 11.6113 6.01016 11.6113 5.25985C11.6113 4.50954 11.0059 3.92001 10.2442 3.92001ZM33.9063 4.44254C33.1445 4.44254 32.5391 5.03208 32.5391 5.78239C32.5391 6.5327 33.1445 7.12223 33.9063 7.12223C34.668 7.12223 35.2735 6.5327 35.2735 5.78239C35.2735 5.03208 34.668 4.44254 33.9063 4.44254ZM36.8164 6.09821C36.7578 6.69827 36.5137 7.24856 36.1426 7.69645C36.7383 7.98547 37.3047 8.28694 37.832 8.59989C37.9981 8.0295 38.3399 7.52514 38.7793 7.14233C38.1641 6.7777 37.5098 6.42934 36.8164 6.09821ZM7.17775 6.44944C6.5879 7.00643 6.0674 7.59405 5.61622 8.19985C6.21681 8.32618 6.75587 8.62286 7.17579 9.03534C7.5088 8.60659 7.88087 8.18741 8.29689 7.78641C7.80568 7.45528 7.41408 6.99207 7.17775 6.44944ZM41.0352 8.09745C40.2735 8.09745 39.668 8.68698 39.668 9.43729C39.668 10.1924 40.2735 10.7762 41.0352 10.7762C41.7969 10.7762 42.4024 10.1924 42.4024 9.43729C42.4024 8.68698 41.7969 8.09745 41.0352 8.09745ZM26.6797 8.575C25.918 8.575 25.3125 9.16454 25.3125 9.91485C25.3125 10.6709 25.918 11.2547 26.6797 11.2547C27.4414 11.2547 28.0469 10.6709 28.0469 9.91485C28.0469 9.16454 27.4414 8.575 26.6797 8.575ZM23.4766 9.08415C22.8711 9.23153 22.2559 9.42676 21.6504 9.65645C22.041 10.0871 22.3047 10.6326 22.3926 11.226C22.7735 11.0824 23.1445 10.9676 23.5156 10.8623C23.418 10.5656 23.3594 10.2498 23.3594 9.91485C23.3594 9.62774 23.3985 9.34924 23.4766 9.08415ZM29.5899 9.58946C29.5996 9.69473 29.6094 9.80958 29.6094 9.91485C29.6094 10.4221 29.4824 10.9006 29.2578 11.3217C29.5801 11.4365 29.9121 11.5514 30.2442 11.6854C30.332 11.092 30.6055 10.5561 30.9961 10.1158C30.5274 9.92442 30.0488 9.75215 29.5899 9.58946ZM5.16212 9.85743C4.3965 9.85743 3.79494 10.4508 3.79494 11.1973C3.79494 11.9438 4.3965 12.5371 5.16212 12.5371C5.92775 12.5371 6.52931 11.9438 6.52931 11.1973C6.52931 10.4508 5.92775 9.85743 5.16212 9.85743ZM19.502 10.3359C18.7402 10.3359 18.1348 10.9293 18.1348 11.6758C18.1348 12.4223 18.7402 13.0156 19.502 13.0156C20.2637 13.0156 20.8692 12.4223 20.8692 11.6758C20.8692 10.9293 20.2637 10.3359 19.502 10.3359ZM33.3301 10.8145C32.5684 10.8145 31.9629 11.4078 31.9629 12.1543C31.9629 12.9008 32.5684 13.4941 33.3301 13.4941C34.0918 13.4941 34.6973 12.9008 34.6973 12.1543C34.6973 11.4078 34.0918 10.8145 33.3301 10.8145ZM43.5254 10.9963C43.2227 11.4939 42.7734 11.9055 42.2461 12.1734C42.5977 12.585 42.9102 12.9965 43.2031 13.4272C43.6621 13.0635 44.2285 12.8242 44.8438 12.7668C44.4629 12.1543 44.0235 11.5609 43.5254 10.9963ZM16.2695 12.4031C15.7031 12.7477 15.1465 13.0922 14.5996 13.4463C15.0488 13.8195 15.3906 14.3172 15.5664 14.8914C16.0938 14.5565 16.6211 14.2215 17.1582 13.8961C16.7285 13.4941 16.416 12.9773 16.2695 12.4031ZM36.3379 12.9869C36.1719 13.5611 35.8301 14.0684 35.3906 14.4512C35.6641 14.6522 35.9277 14.8627 36.1817 15.0828C36.4942 14.5756 36.9531 14.1641 37.5 13.9057C37.1192 13.5898 36.7383 13.2836 36.3379 12.9869ZM3.334 13.8004C3.22853 14.7766 3.27833 15.7049 3.49708 16.5471C3.91701 16.0781 4.47755 15.7432 5.11037 15.59C5.05079 15.1785 5.03322 14.7287 5.06349 14.2598H4.96681C4.37013 14.2598 3.81056 14.0971 3.334 13.8004ZM12.7637 14.4225C12.002 14.4225 11.3965 15.0158 11.3965 15.7623C11.3965 16.5088 12.002 17.1022 12.7637 17.1022C13.5254 17.1022 14.1309 16.5088 14.1309 15.7623C14.1309 15.0158 13.5254 14.4225 12.7637 14.4225ZM45.3516 14.4703C44.5899 14.4703 43.9844 15.0637 43.9844 15.8102C43.9844 16.5566 44.5899 17.15 45.3516 17.15C46.1133 17.15 46.7188 16.5566 46.7188 15.8102C46.7188 15.0637 46.1133 14.4703 45.3516 14.4703ZM39.0527 15.3221C38.291 15.3221 37.6856 15.9154 37.6856 16.6619C37.6856 17.4084 38.291 18.0018 39.0527 18.0018C39.8145 18.0018 40.4199 17.4084 40.4199 16.6619C40.4199 15.9154 39.8145 15.3221 39.0527 15.3221ZM9.56056 16.5662C9.21095 16.7576 8.87794 16.9299 8.56349 17.0734C8.81642 17.5232 8.96193 18.0305 8.96193 18.5664C8.96193 18.643 8.96193 18.7195 8.95216 18.7961C9.01564 18.7674 9.07911 18.7387 9.14357 18.71C9.57716 18.5186 10.0195 18.2889 10.4785 18.0305C10.0391 17.6477 9.72072 17.1404 9.56056 16.5662ZM6.03224 17.2266C5.26661 17.2266 4.66505 17.8199 4.66505 18.5664C4.66505 19.3129 5.26661 19.9063 6.03224 19.9063C6.79786 19.9063 7.39943 19.3129 7.39943 18.5664C7.39943 17.8199 6.79786 17.2266 6.03224 17.2266ZM46.6699 18.4898C46.2207 18.7291 45.7031 18.8727 45.1563 18.8727C45.0781 18.8727 45 18.8727 44.9317 18.8631C44.9414 19.4469 44.8926 20.0402 44.7949 20.6432C45.4199 20.6719 46.0059 20.8729 46.4844 21.2078C46.4844 21.1791 46.4942 21.1408 46.5039 21.1121L46.5137 21.1025V21.093C46.6602 20.2125 46.709 19.3416 46.6699 18.4898ZM40.8594 19.0066C40.4004 19.3895 39.834 19.6383 39.209 19.7053C39.2969 20.2412 39.2969 20.7867 39.209 21.3705C39.8242 21.4471 40.3906 21.6959 40.8496 22.0691C41.084 21.0068 41.0742 19.9732 40.8594 19.0066ZM4.84767 21.4662C4.87599 21.9352 4.9131 22.3945 4.959 22.8539C5.34669 22.6816 5.7754 22.5859 6.22462 22.5859C6.38576 22.5859 6.54396 22.5955 6.69923 22.6242C6.66408 22.2606 6.6338 21.8969 6.61037 21.5332C6.36232 21.6002 6.10353 21.6289 5.83693 21.6289C5.49122 21.6289 5.15919 21.5715 4.84767 21.4662ZM44.8731 22.3658C44.1113 22.3658 43.5059 22.9592 43.5059 23.7057C43.5059 24.4522 44.1113 25.0455 44.8731 25.0455C45.6348 25.0455 46.2402 24.4522 46.2402 23.7057C46.2402 22.9592 45.6348 22.3658 44.8731 22.3658ZM39.043 23.074C38.2813 23.074 37.6758 23.6674 37.6758 24.4139C37.6758 25.1604 38.2813 25.7537 39.043 25.7537C39.8047 25.7537 40.4102 25.1604 40.4102 24.4139C40.4102 23.6674 39.8047 23.074 39.043 23.074ZM6.41993 24.3086C5.65431 24.3086 5.05275 24.902 5.05275 25.6484C5.05275 26.3949 5.65431 26.9883 6.41993 26.9883C7.18556 26.9883 7.78712 26.3949 7.78712 25.6484C7.78712 24.902 7.18556 24.3086 6.41993 24.3086ZM35.8594 25.3135C35.3906 25.4666 34.8731 25.591 34.3164 25.6867C34.4727 26.06 34.5606 26.4619 34.5606 26.883C34.5606 27.0648 34.541 27.2371 34.5117 27.4094C35.3516 27.2658 36.1621 27.0744 36.9043 26.8064C36.416 26.4236 36.0547 25.9068 35.8594 25.3135ZM31.6309 25.5432C30.8692 25.5432 30.2637 26.1365 30.2637 26.883C30.2637 27.6295 30.8692 28.2229 31.6309 28.2229C32.3926 28.2229 32.9981 27.6295 32.9981 26.883C32.9981 26.1365 32.3926 25.5432 31.6309 25.5432ZM42.4902 25.8877C42.2266 26.3184 41.9434 26.7586 41.6504 27.2084L41.1817 27.8975C41.7578 28.0602 42.2754 28.3856 42.666 28.8258C42.8223 28.5961 42.9785 28.376 43.125 28.1463C43.4473 27.6582 43.7598 27.1797 44.043 26.7012C43.4473 26.5863 42.9102 26.2897 42.4902 25.8877ZM28.3692 26.2801C27.6367 26.3279 26.8945 26.3854 26.1817 26.4619L25.918 26.4906C26.084 26.8543 26.1719 27.2658 26.1719 27.6869C26.1719 27.8592 26.1524 28.0315 26.1231 28.2037C26.211 28.1941 26.2891 28.1846 26.3672 28.175C27.0606 28.108 27.7832 28.0506 28.5254 27.9932C28.3887 27.6486 28.3106 27.2754 28.3106 26.883C28.3106 26.6725 28.3301 26.4715 28.3692 26.2801ZM23.2422 26.3471C22.4805 26.3471 21.875 26.9404 21.875 27.6869C21.875 28.4334 22.4805 29.0268 23.2422 29.0268C24.0039 29.0268 24.6094 28.4334 24.6094 27.6869C24.6094 26.9404 24.0039 26.3471 23.2422 26.3471ZM7.87599 28.242C7.39552 28.5387 6.82911 28.7109 6.22462 28.7109H6.18556C6.43458 29.4383 6.72462 30.1465 7.05763 30.8356C7.4463 30.3953 7.95997 30.0604 8.54298 29.8881C8.29298 29.3522 8.07228 28.8066 7.87599 28.242ZM20.0488 28.5482C20.0293 28.577 20 28.5961 19.9805 28.6248C19.2969 29.3904 18.9746 30.4527 19.1211 31.6395C19.1504 31.8596 19.1895 32.0797 19.2383 32.3094C19.7168 31.9744 20.3027 31.783 20.918 31.7639C20.8985 31.649 20.8789 31.5438 20.8692 31.4385C20.791 30.8164 20.8789 30.4049 21.0742 30.0604C20.5957 29.6775 20.2344 29.1512 20.0488 28.5482ZM40.5078 29.4957C39.7461 29.4957 39.1406 30.0891 39.1406 30.8356C39.1406 31.582 39.7461 32.1754 40.5078 32.1754C41.2695 32.1754 41.875 31.582 41.875 30.8356C41.875 30.0891 41.2695 29.4957 40.5078 29.4957ZM9.61915 31.4863C8.85353 31.4863 8.25197 32.0797 8.25197 32.8262C8.25197 33.5727 8.85353 34.166 9.61915 34.166C10.3809 34.166 10.9766 33.5727 10.9766 32.8262C10.9766 32.0797 10.3809 31.4863 9.61915 31.4863ZM37.5977 32.3381C37.1094 32.8549 36.6211 33.3525 36.1133 33.8311C36.6016 34.1564 36.9922 34.6254 37.2266 35.1709C37.7832 34.6445 38.3301 34.099 38.8574 33.5439C38.3301 33.2664 37.8906 32.8453 37.5977 32.3381ZM21.2012 33.4865C20.4395 33.4865 19.834 34.0799 19.834 34.8264C19.834 35.5729 20.4395 36.1662 21.2012 36.1662C21.9629 36.1662 22.5684 35.5729 22.5684 34.8264C22.5684 34.0799 21.9629 33.4865 21.2012 33.4865ZM12.207 34.4436L10.3711 35.8504C10.0684 36.817 12.0508 45.526 14.0625 47.4113L14.502 46.8945L13.1836 40.9801L15.1856 46.2246C15.2246 46.1959 15.5078 46.0045 15.5469 45.9758L14.707 43.5162L16.0645 45.593C16.8945 45.0475 17.7539 44.8082 19.4141 44.6647L17.8613 41.717L20.8985 44.6072C21.6992 44.6072 22.6074 44.6551 23.6328 44.7508C21.3574 41.9945 15.3906 35.324 12.207 34.4436ZM34.541 35.0082C33.7793 35.0082 33.1738 35.6016 33.1738 36.348C33.1738 37.0945 33.7793 37.6879 34.541 37.6879C35.3027 37.6879 35.9082 37.0945 35.9082 36.348C35.9082 35.6016 35.3027 35.0082 34.541 35.0082ZM23.5547 36.5873C23.2227 37.0563 22.7539 37.4295 22.207 37.6496C22.6953 38.1664 23.2129 38.5971 23.75 38.9416C23.7891 38.3291 24.0039 37.7645 24.3457 37.3051C24.082 37.0945 23.8184 36.8648 23.5547 36.5873ZM31.377 37.2859C30.8301 37.5635 30.3027 37.7932 29.7754 37.9654C29.9219 38.31 30 38.6928 30 39.0947C30 39.3148 29.9805 39.5254 29.9317 39.7264C30.7617 39.4967 31.5723 39.1522 32.3828 38.7311C31.9141 38.3578 31.5625 37.8602 31.377 37.2859ZM27.0703 37.7549C26.3086 37.7549 25.7031 38.3482 25.7031 39.0947C25.7031 39.8412 26.3086 40.4346 27.0703 40.4346C27.832 40.4346 28.4375 39.8412 28.4375 39.0947C28.4375 38.3482 27.832 37.7549 27.0703 37.7549Z" fill="#387A88"/>
</svg>
