<svg width="38" height="38" viewBox="0 0 38 38" fill="none" xmlns="http://www.w3.org/2000/svg">
<g clip-path="url(#clip0_300_344)">
<path d="M11.0042 12.7458C10.45 12.7458 10.061 12.6334 9.83725 12.4086C9.61347 12.1837 9.50106 11.7948 9.5 11.2417C9.5 10.1861 9.75069 9.20972 10.2521 8.31249C10.7535 7.41527 11.4264 6.67638 12.2708 6.09583L19 1.58333L25.7292 6.09583C26.5736 6.67638 27.2465 7.41527 27.7479 8.31249C28.2493 9.20972 28.5 10.1861 28.5 11.2417C28.5 11.7958 28.3876 12.1853 28.1628 12.4102C27.9379 12.635 27.5489 12.7469 26.9958 12.7458H11.0042ZM1.58333 33.25V13.8146C1.10833 13.5243 0.725694 13.1485 0.435417 12.6872C0.145139 12.226 0 11.6913 0 11.0833C0 10.4764 0.316667 9.73749 0.95 8.86666C1.58333 7.99583 2.32222 7.15138 3.16667 6.33333C4.01111 7.15138 4.75 7.99583 5.38333 8.86666C6.01667 9.73749 6.33333 10.4764 6.33333 11.0833C6.33333 11.6903 6.18819 12.2249 5.89792 12.6872C5.60764 13.1496 5.225 13.5248 4.75 13.813V20.5833H7.91667V17.4167C7.91667 16.7569 8.12778 16.1236 8.55 15.5167C8.97222 14.9097 9.57917 14.5139 10.3708 14.3292H27.6292C28.4208 14.5139 29.0278 14.9097 29.45 15.5167C29.8722 16.1236 30.0833 16.7569 30.0833 17.4167V20.5833H33.25V13.8146C32.775 13.5243 32.3924 13.1485 32.1021 12.6872C31.8118 12.226 31.6667 11.6913 31.6667 11.0833C31.6667 10.4764 31.9833 9.73749 32.6167 8.86666C33.25 7.99583 33.9889 7.15138 34.8333 6.33333C35.6778 7.15138 36.4167 7.99583 37.05 8.86666C37.6833 9.73749 38 10.4764 38 11.0833C38 11.6903 37.8549 12.2249 37.5646 12.6872C37.2743 13.1496 36.8917 13.5248 36.4167 13.813V33.25H22.1667V26.9167C22.1667 26.0458 21.8569 25.3006 21.2373 24.681C20.6176 24.0614 19.8719 23.751 19 23.75C18.1292 23.75 17.3839 24.0603 16.7643 24.681C16.1447 25.3017 15.8344 26.0469 15.8333 26.9167V33.25H1.58333Z" fill="#387A88"/>
</g>
<defs>
<clipPath id="clip0_300_344">
<rect width="38" height="38" fill="white"/>
</clipPath>
</defs>
</svg>
