<svg width="39" height="52" viewBox="0 0 39 52" fill="none" xmlns="http://www.w3.org/2000/svg">
<path d="M38.1347 25.1597C37.9598 24.4099 37.8222 23.6675 37.749 22.9C37.6772 22.1413 37.6309 21.3811 37.5202 20.6254C37.4081 19.8637 37.2122 19.1169 36.9969 18.3789C36.6516 17.1979 36.2943 16.0229 35.9369 14.8448C35.7829 14.0283 35.6155 13.2119 35.3867 12.4117C35.1983 11.7508 34.9681 11.1017 34.681 10.4764C34.4837 10.0497 34.0905 9.03461 33.4341 9.33098C33.2443 9.41692 33.0977 9.61104 32.9811 9.81405C32.9064 8.98571 32.8316 8.15738 32.7569 7.33052C32.7255 6.98822 32.7419 6.56146 32.4519 6.31993C32.1902 6.1021 31.8299 6.16433 31.5473 6.30807C31.0345 6.56739 30.6533 7.09788 30.417 7.62244C30.3856 7.36312 30.3557 7.10381 30.3243 6.84301C30.2944 6.60147 30.2825 6.33771 30.1375 6.13173C29.7936 5.63829 29.1627 5.9065 28.7964 6.2162C28.3897 6.5585 28.1161 7.03416 27.9456 7.53057C27.7662 8.0581 27.7154 8.61822 27.7019 9.1739C27.6272 9.15612 27.5494 9.15464 27.4762 9.17094C27.4822 9.07462 27.4762 8.9783 27.4582 8.88199C27.3237 8.1885 26.5432 8.04772 25.9721 8.28926C25.9377 8.30408 25.9048 8.32186 25.872 8.33816C26.3085 7.29496 26.7271 6.24583 27.1233 5.18485C27.3895 4.46914 27.7617 3.59931 27.228 2.90878C27.0082 2.62427 26.6793 2.47313 26.3205 2.51758C25.9422 2.56352 25.5789 2.77987 25.2694 2.99028C25.1199 3.09105 24.9779 3.20366 24.8448 3.32073C24.9241 3.11476 24.9973 2.90582 25.0616 2.6954C25.1812 2.30124 25.2664 1.89818 25.3098 1.49069C25.3487 1.1143 25.3502 0.699395 25.1124 0.380805C24.6923 -0.17784 23.8775 -0.0578131 23.3811 0.318568C23.0597 0.561586 22.8235 0.890549 22.5768 1.20618C22.3017 1.56181 22.0266 1.91893 21.75 2.27605C21.3956 2.73245 21.0428 3.19033 20.6885 3.64673C20.8305 3.21404 20.9486 2.77394 21.0383 2.32791C21.1131 1.9619 21.1609 1.56181 20.9905 1.21359C20.835 0.894995 20.5046 0.712731 20.1532 0.708286C19.3788 0.697913 18.7194 1.31731 18.2111 1.82261C17.6101 2.42127 17.1152 3.10883 16.716 3.85122C16.5186 4.21871 16.3347 4.59509 16.1045 4.9448C15.8683 5.3034 15.5693 5.58494 15.2463 5.86797C14.9264 6.14655 14.6498 6.44884 14.4375 6.81633C14.2297 7.17641 14.0801 7.56465 13.9112 7.94251C13.2249 9.4836 12.0498 10.7031 10.9554 11.9642C10.471 12.5243 9.98358 13.12 9.57094 13.7557C9.82809 13.0696 10.1585 12.4117 10.5771 11.8026C10.8373 11.4263 11.1318 11.078 11.4533 10.7506C11.7971 10.4008 12.1575 10.0674 12.4595 9.68217C13.059 8.91903 13.4402 8.01512 13.7452 7.10381C14.0039 6.32733 14.2012 5.32414 13.5987 4.64547C13.2713 4.27946 12.8362 4.39801 12.5163 4.70474C12.1799 5.02778 11.8719 5.37008 11.5131 5.67089C11.1363 5.98652 10.7341 6.27251 10.3125 6.5259C9.90285 6.7704 9.47077 6.97044 9.05364 7.20161C8.63949 7.42832 8.25526 7.6995 7.93231 8.04476C7.59891 8.39743 7.3268 8.80345 7.07114 9.21391C5.77788 11.2988 4.53247 13.4149 3.26314 15.5146C3.22277 15.5842 3.22725 15.6524 3.25865 15.7043C2.91777 16.4793 2.81162 17.3313 2.77424 18.1745C2.72789 19.2265 2.73537 20.2801 2.70995 21.3337C2.68304 22.4154 2.63968 23.4971 2.53951 24.5744C2.44083 25.6265 2.30927 26.6949 2.02669 27.7144C1.75907 28.6805 1.21336 29.6985 0.184737 30.0231C0.104002 30.0483 0.0606442 30.1046 0.0441982 30.1683C0.00233552 30.2261 -0.017101 30.3031 0.0187813 30.3846C1.4152 33.4757 3.64289 36.1193 6.13073 38.4087C6.48656 38.7361 6.84239 39.0636 7.21467 39.3689C7.58695 39.6741 7.98913 39.9438 8.46457 40.0564C8.53035 40.0727 8.58567 40.0564 8.62903 40.0268C8.63202 40.0238 8.6365 40.0224 8.63949 40.0209C8.69481 39.9838 8.75013 39.9468 8.80545 39.9083C9.25248 39.6104 9.69354 39.3022 10.1301 38.9866C10.6863 38.585 11.235 38.1716 11.7732 37.7433C12.2472 37.3684 12.754 36.9209 13.0695 36.3875C13.0754 36.4201 13.0799 36.4541 13.0844 36.4867C13.1367 36.8113 13.195 37.1521 13.3221 37.4544C13.4806 37.8307 13.8454 38.013 14.2431 38.1093C14.5302 38.1805 14.8337 38.2071 15.0893 38.2308C16.6069 38.3731 18.1184 37.9745 19.5627 37.5566C22.4826 36.712 25.3442 35.6703 28.1236 34.4448C30.7011 33.3097 33.2996 32.068 35.5228 30.3224C36.067 29.8956 36.5858 29.4363 37.0657 28.9399C37.5232 28.4686 37.9822 27.9604 38.199 27.3306C38.4442 26.6223 38.2992 25.8621 38.1317 25.1538L38.1347 25.1597Z" fill="#387A88"/>
<path d="M13.7886 33.2164C12.7779 34.9324 11.2305 36.4794 9.75484 37.3536C9.27342 37.6396 8.77107 37.8856 8.25227 38.0945C8.13117 38.1434 8.17303 38.3331 8.28666 38.3613C8.83835 38.4902 9.402 38.6206 9.91332 38.8695C9.98808 38.9051 10.0613 38.9451 10.1331 38.9881C10.6893 38.5865 11.238 38.1731 11.7762 37.7448C12.2502 37.3699 12.757 36.9224 13.0725 36.389C13.0784 36.4216 13.0829 36.4557 13.0874 36.4883C13.0994 36.432 13.1113 36.3742 13.1203 36.3178C13.2504 35.617 13.3804 34.9175 13.5105 34.2166C13.7004 33.9381 13.8783 33.6521 14.0428 33.3557C14.134 33.1942 13.8843 33.0519 13.7886 33.2134V33.2164Z" fill="white"/>
<path d="M10.6893 18.013C10.4919 17.5684 10.2333 17.1268 9.84303 16.8216C9.57093 16.6082 9.27041 16.5045 8.95196 16.4719C9.23602 15.2049 9.62475 13.9587 10.1196 12.757C10.2392 12.468 10.4157 12.1731 10.4889 11.8694C10.5592 11.5834 10.4201 11.3492 10.2706 11.1151C9.98656 10.6676 9.61129 10.2557 9.07904 10.1178C8.82188 10.0512 8.71573 10.4468 8.97438 10.5135C9.44833 10.6365 9.75632 11.0499 9.99254 11.4485C10.0673 11.576 10.1211 11.6708 10.0733 11.8219C10.0284 11.9612 9.95516 12.0961 9.89686 12.2309C9.78472 12.4917 9.67558 12.7555 9.57242 13.0207C9.14183 14.1247 8.79796 15.2597 8.54081 16.4156C8.53632 16.4333 8.53483 16.4511 8.53632 16.4674C8.47203 16.4719 8.40774 16.4778 8.34196 16.4867C7.12645 16.6408 5.9214 16.9727 4.77616 17.3995C4.52947 17.4914 4.63263 17.8885 4.88081 17.7951C5.93187 17.4039 7.02029 17.112 8.12816 16.9298C8.63799 16.8468 9.16127 16.8023 9.58887 17.1417C9.93423 17.4173 10.1525 17.8203 10.3289 18.216C10.4366 18.4575 10.7954 18.253 10.6878 18.013H10.6893Z" fill="white"/>
<path d="M18.3247 16.1118C17.9106 15.7917 17.468 15.5339 16.9881 15.325C16.5351 15.1294 16.1568 14.913 15.8817 14.4951C15.7591 14.3084 15.6575 14.1099 15.5618 13.9083C15.5169 13.8135 15.481 13.6712 15.3943 13.6046C15.3046 13.5364 15.1476 13.5334 15.0385 13.5082C14.566 13.3986 14.1071 13.2386 13.6705 13.0281C13.1651 12.7836 12.6912 12.4784 12.2636 12.1168C12.0633 11.9464 11.7687 12.2354 11.9721 12.4058C12.8766 13.1719 13.9605 13.7038 15.1267 13.9424C15.3749 14.4833 15.6575 15.0241 16.1658 15.3679C16.4514 15.5606 16.7833 15.6702 17.0913 15.8184C17.4247 15.9799 17.7431 16.174 18.0347 16.4008C18.241 16.5608 18.537 16.2733 18.3262 16.1118H18.3247Z" fill="white"/>
<path d="M24.2946 4.06463C24.1899 4.00535 24.0778 4.05129 24.0135 4.14168C23.5246 4.83221 23.1434 5.5909 22.8758 6.39256C22.792 6.64299 23.1927 6.74671 23.2749 6.49629C23.5306 5.72871 23.9029 5.00558 24.3723 4.34321C24.4366 4.25282 24.3843 4.11501 24.2946 4.06314V4.06463Z" fill="white"/>
<path d="M22.662 7.0653C21.9503 8.23149 21.2611 9.41102 20.5942 10.6024C19.9454 11.7641 19.2741 12.9303 18.7403 14.1484C18.4488 14.8122 18.2111 15.4983 18.087 16.214C18.0421 16.4719 18.4413 16.5786 18.4862 16.3178C18.7045 15.0538 19.2801 13.9009 19.8781 12.7762C20.5075 11.5893 21.1609 10.4142 21.8352 9.25246C22.2224 8.58565 22.6171 7.92327 23.0193 7.26535C23.1568 7.04011 22.798 6.8371 22.6605 7.06234L22.662 7.0653Z" fill="white"/>
<path d="M19.31 6.16585C18.9751 6.64596 18.6387 7.1231 18.3083 7.60617C17.9913 8.0685 17.6923 8.54564 17.48 9.06576C17.3768 9.31915 17.2946 9.58143 17.181 9.83038C17.0658 10.0808 16.9238 10.3179 16.7788 10.5535C16.4902 11.0232 16.2301 11.4989 15.9983 11.9998C15.7412 12.5584 15.493 13.123 15.1506 13.6386C15.0056 13.8594 15.3644 14.061 15.5094 13.8417C16.1135 12.9274 16.4499 11.8723 17.024 10.9388C17.3125 10.469 17.5637 10.0067 17.7551 9.49104C17.9524 8.95463 18.226 8.46563 18.543 7.99144C18.9078 7.44465 19.292 6.90972 19.6688 6.37034C19.8198 6.15399 19.4595 5.95247 19.31 6.16733V6.16585Z" fill="white"/>
<path d="M20.8095 4.51658C20.7961 4.46768 20.7587 4.41433 20.7124 4.39062C20.6227 4.34469 20.4746 4.36099 20.4298 4.46768C20.3715 4.60697 20.3027 4.74329 20.2265 4.87518C20.1876 4.94038 20.1472 5.00409 20.1039 5.06781C20.0829 5.09893 20.0605 5.13005 20.0381 5.16117C20.0276 5.17598 20.0171 5.19377 20.0037 5.2071C20.047 5.16265 20.0037 5.2071 19.9932 5.21896C19.9573 5.26341 19.9334 5.3049 19.9334 5.36417C19.9334 5.41456 19.9558 5.47383 19.9932 5.50939C20.068 5.57756 20.2145 5.59978 20.2848 5.50939C20.4896 5.25156 20.6615 4.97446 20.7886 4.67217C20.8095 4.6203 20.823 4.57585 20.808 4.51954L20.8095 4.51658Z" fill="white"/>
<path d="M25.706 12.5036C24.8224 15.0864 23.9522 17.6736 23.0941 20.2638C22.8668 20.9484 22.641 21.6345 22.4168 22.3206C22.3973 22.3428 22.3824 22.3695 22.3734 22.4051C21.8098 24.6308 19.911 26.1452 18.3426 27.6937C16.7982 29.2155 15.2329 30.8084 14.1055 32.6696C13.506 33.6609 13.047 34.7412 12.8467 35.8837C12.8018 36.1415 13.201 36.2482 13.2459 35.9874C13.6092 33.9247 14.8097 32.148 16.1628 30.5877C16.9029 29.7341 17.6908 28.9206 18.4922 28.1249C19.3234 27.2995 20.2055 26.5201 20.983 25.6414C21.7649 24.7567 22.4347 23.7535 22.7472 22.6096C22.7592 22.5933 22.7681 22.5755 22.7756 22.5532C23.6263 19.9601 24.489 17.3713 25.3651 14.7856C25.6118 14.0595 25.8585 13.3334 26.1067 12.6073C26.1919 12.3569 25.7927 12.2546 25.7075 12.5036H25.706Z" fill="white"/>
<path d="M33.6524 25.3035C33.4012 24.7641 32.7838 24.5715 32.2351 24.487C31.7282 24.4085 30.9867 24.3951 30.7011 23.8884C30.6413 23.7817 30.6069 23.6616 30.5471 23.5535C30.5322 20.1453 30.8999 16.7223 30.3587 13.3349C30.2077 12.3924 30.0208 11.45 30.0821 10.4898C30.0986 10.226 29.6859 10.2275 29.6695 10.4898C29.6172 11.3285 29.7487 12.1598 29.8848 12.9852C30.0253 13.8328 30.136 14.6804 30.1898 15.5383C30.2974 17.2409 30.2391 18.948 30.1868 20.6521C30.1614 21.5086 30.1375 22.3651 30.136 23.2215C30.133 23.2215 30.13 23.2186 30.127 23.2171C29.7637 23.0748 29.3854 22.9622 29.0101 22.86C28.6259 22.7548 28.2357 22.6718 27.8395 22.6199C27.5166 22.577 27.1936 22.5577 26.8796 22.4732C26.8991 22.4451 26.911 22.4095 26.9125 22.3665C26.9619 20.7677 27.4747 19.2399 27.7647 17.6781C27.9098 16.8927 27.989 16.1014 27.9606 15.3027C27.9322 14.4833 27.8215 13.6698 27.7483 12.8533C27.6661 11.936 27.6287 11.0069 27.8156 10.1001C27.8694 9.84223 27.4687 9.73702 27.4164 9.99633C27.0785 11.6323 27.4253 13.2756 27.5285 14.916C27.5793 15.725 27.5435 16.5267 27.4089 17.3269C27.2743 18.1211 27.074 18.9035 26.8961 19.6889C26.6972 20.5632 26.5298 21.4463 26.4999 22.3428C26.1695 22.2184 25.854 22.0968 25.4907 22.0583C25.0511 22.0124 24.6071 22.0568 24.169 22.1013C23.9074 22.128 23.9044 22.5384 24.169 22.5103C24.5458 22.4717 24.9241 22.4332 25.3038 22.4525C25.6791 22.4717 26.0155 22.5799 26.3608 22.7207C26.7017 22.86 27.0366 22.9385 27.4029 22.9785C27.7827 23.0215 28.1565 23.0748 28.5287 23.1608C28.8965 23.2467 29.2583 23.3534 29.6172 23.472C29.7712 23.5224 29.9835 23.5609 30.1135 23.6631C30.2301 23.755 30.2586 23.9239 30.3213 24.0514C30.577 24.5641 31.1825 24.7449 31.7103 24.8264C32.2575 24.9123 33.0245 24.9301 33.2936 25.5065C33.4057 25.7466 33.7631 25.5421 33.6524 25.3035Z" fill="white"/>
<path d="M30.1703 8.31004C30.0672 8.28781 29.9401 8.34412 29.9177 8.45673C29.8609 8.7531 29.819 9.05094 29.7921 9.35175C29.7831 9.45844 29.8937 9.56069 29.9984 9.55624C30.118 9.5518 30.1943 9.46585 30.2047 9.35175C30.2107 9.28062 30.2182 9.21098 30.2257 9.13985C30.2286 9.10725 30.2316 9.07465 30.2376 9.04205C30.2301 9.08799 30.2376 9.03909 30.2391 9.02872C30.2421 9.00945 30.2436 8.99019 30.2466 8.97241C30.266 8.8346 30.2899 8.69679 30.3154 8.56046C30.3363 8.45525 30.2825 8.33523 30.1673 8.31004H30.1703Z" fill="white"/>
<path d="M34.1114 15.7606C33.8797 15.7591 33.6539 15.7325 33.4311 15.6732C33.3489 15.651 33.2069 15.6332 33.1411 15.5739C33.0798 15.5176 33.1022 15.4139 33.1007 15.3338C33.0962 14.9071 33.0245 14.4818 32.9318 14.0654C32.7404 13.2134 32.4518 12.3732 32.4788 11.49C32.4862 11.2262 32.0736 11.2262 32.0661 11.49C32.0347 12.4902 32.389 13.4356 32.5819 14.4047C32.6313 14.6522 32.6686 14.9012 32.6821 15.1545C32.6925 15.3605 32.6522 15.6021 32.7733 15.7843C32.8914 15.9607 33.1321 16.0199 33.325 16.0718C33.5806 16.14 33.8468 16.1711 34.1114 16.174C34.3775 16.1755 34.3775 15.7665 34.1114 15.7651V15.7606Z" fill="white"/>
<path d="M34.7483 15.7547C34.4822 15.7547 34.4822 16.1637 34.7483 16.1637C35.0144 16.1637 35.0144 15.7547 34.7483 15.7547Z" fill="white"/>
<path d="M33.6075 19.3644C33.5507 18.8161 33.3997 18.2856 33.2906 17.7477C33.1575 17.0928 33.0813 16.4274 33.0558 15.7606C33.0454 15.4968 32.6327 15.5117 32.6432 15.7754C32.6656 16.3563 32.7284 16.9342 32.8271 17.5077C32.9228 18.0619 33.0857 18.6042 33.1665 19.1599C33.3294 20.2683 33.1216 21.3841 33.0185 22.4866C32.9602 23.1178 32.9362 23.7535 33.0245 24.3833C33.0603 24.6426 33.4745 24.6308 33.4371 24.3685C33.2801 23.2556 33.482 22.1443 33.5836 21.0359C33.6344 20.4802 33.6644 19.9201 33.606 19.3644H33.6075Z" fill="white"/>
<path d="M11.4054 19.5748C11.3546 19.3259 11.2559 19.0828 11.1168 18.868C11.0585 18.7776 10.9329 18.7302 10.8358 18.7909C10.7446 18.8472 10.6952 18.9732 10.758 19.071C10.8163 19.1629 10.8672 19.2577 10.909 19.3585C10.9494 19.4622 10.9823 19.5703 11.0047 19.68C11.0256 19.7852 11.1542 19.8578 11.2574 19.8267C11.3695 19.7926 11.4278 19.6889 11.4054 19.5763V19.5748Z" fill="white"/>
<path d="M11.6147 20.6965C11.5699 20.4357 11.1707 20.5424 11.2155 20.8003C11.5923 22.9696 11.2335 25.2531 10.2347 27.2165C9.95068 27.7766 9.61428 28.3086 9.23304 28.808C9.16576 28.8969 9.22406 29.0362 9.31078 29.0881C9.41693 29.1503 9.52607 29.0984 9.59186 29.011C10.9808 27.1913 11.7433 24.9256 11.7732 22.6466C11.7822 21.9931 11.7269 21.3411 11.6147 20.6965Z" fill="white"/>
<path d="M12.3114 25.6339C12.1948 25.6028 12.0991 25.6769 12.0588 25.7806C11.7926 26.4786 11.4024 27.1321 10.9135 27.6981C10.8418 27.7826 10.8298 27.9056 10.9135 27.9871C10.9883 28.0612 11.1333 28.0715 11.2051 27.9871C11.7448 27.3617 12.1649 26.6534 12.458 25.8829C12.4968 25.7792 12.4101 25.6591 12.3099 25.6325L12.3114 25.6339Z" fill="white"/>
<path d="M12.6164 24.7656C12.6164 24.7656 12.6164 24.7597 12.6149 24.7567C12.6149 24.7538 12.6134 24.7508 12.6119 24.7478C12.606 24.73 12.5985 24.7123 12.591 24.696C12.591 24.696 12.591 24.693 12.5895 24.6915C12.5761 24.6663 12.5581 24.6456 12.5342 24.6308C12.5133 24.613 12.4894 24.5996 12.4624 24.5937C12.4355 24.5863 12.4101 24.5848 12.3832 24.5908C12.3563 24.5908 12.3309 24.5996 12.3069 24.6145C12.292 24.6248 12.277 24.6367 12.2636 24.6471C12.2367 24.6737 12.2187 24.7049 12.2098 24.7404C12.2083 24.7582 12.2053 24.7745 12.2038 24.7923C12.2038 24.7952 12.2038 24.7967 12.2038 24.7997C12.1918 24.8175 12.1814 24.8353 12.1769 24.8575C12.1694 24.8842 12.1679 24.9093 12.1739 24.936C12.1739 24.9627 12.1829 24.9879 12.1978 25.0116L12.2307 25.0546C12.2576 25.0812 12.289 25.099 12.3249 25.1079C12.3428 25.1109 12.3593 25.1124 12.3772 25.1153C12.4131 25.1153 12.4475 25.1064 12.4789 25.0886C12.4819 25.0872 12.4834 25.0857 12.4864 25.0827C12.5028 25.0709 12.5207 25.059 12.5357 25.0442C12.5372 25.0427 12.5402 25.0397 12.5417 25.0383C12.5417 25.0383 12.5432 25.0353 12.5447 25.0353C12.5566 25.0205 12.5686 25.0042 12.5806 24.9894C12.5835 24.9849 12.5865 24.979 12.5895 24.9745C12.6 24.9538 12.609 24.9331 12.6149 24.9108C12.6209 24.8901 12.6224 24.8634 12.6254 24.8441C12.6254 24.8382 12.6254 24.8323 12.6254 24.8264C12.6239 24.8071 12.6209 24.7864 12.6179 24.7671L12.6164 24.7656Z" fill="white"/>
<path d="M17.6026 22.8066C15.8488 21.07 14.9338 18.5879 15.0564 16.1414C15.0908 15.4465 15.2149 14.7589 15.4212 14.0936C15.499 13.8417 15.0998 13.7379 15.022 13.9898C14.261 16.4437 14.6423 19.1955 15.9699 21.393C16.3437 22.0124 16.7952 22.5873 17.311 23.0971C17.4994 23.2838 17.791 22.9948 17.6026 22.8081V22.8066Z" fill="white"/>
<path d="M18.1677 16.0703C17.6684 16.1044 17.1869 16.3311 16.861 16.7119C16.7907 16.7934 16.7743 16.9223 16.861 17.0009C16.9387 17.0705 17.0778 17.0883 17.1525 17.0009C17.2213 16.9194 17.2976 16.8453 17.3813 16.7801C17.3828 16.7801 17.3918 16.7727 17.3977 16.7682C17.4067 16.7623 17.4187 16.7534 17.4187 16.7534C17.4381 16.7401 17.459 16.7253 17.48 16.7134C17.5263 16.6838 17.5742 16.6571 17.622 16.6319C17.6444 16.6215 17.6654 16.6097 17.6878 16.6008C17.7012 16.5949 17.7162 16.5889 17.7297 16.583C17.779 16.5652 17.8268 16.5474 17.8777 16.5341C17.93 16.5193 17.9838 16.5074 18.0376 16.4971C18.0496 16.4956 18.0616 16.4926 18.0735 16.4911C18.0765 16.4911 18.0795 16.4911 18.0825 16.4911C18.1109 16.4882 18.1393 16.4852 18.1662 16.4837C18.2739 16.4763 18.3785 16.3948 18.3725 16.2792C18.3681 16.174 18.2813 16.0659 18.1662 16.0747L18.1677 16.0703Z" fill="white"/>
<path d="M16.5994 17.9581C16.6382 17.927 16.6592 17.8603 16.6592 17.8129C16.6592 17.7625 16.6367 17.7033 16.5994 17.6677C16.5605 17.6321 16.5082 17.6055 16.4529 17.6084C16.4349 17.6099 16.4185 17.6129 16.4005 17.6158C16.3646 17.6247 16.3332 17.6425 16.3063 17.6692C16.2211 17.7373 16.1493 17.8263 16.0955 17.9211C16.0417 18.0144 16.0013 18.1211 15.9864 18.2278C15.9789 18.2827 15.9774 18.3316 16.0058 18.3805C16.0312 18.4249 16.0821 18.4664 16.1329 18.4768C16.1837 18.4871 16.242 18.4857 16.2869 18.4575C16.3303 18.4294 16.3766 18.3849 16.3841 18.3316C16.3916 18.2827 16.405 18.2352 16.4215 18.1878C16.4409 18.1463 16.4633 18.1063 16.4887 18.0693C16.5216 18.0293 16.556 17.9907 16.5964 17.9581H16.5994Z" fill="white"/>
<path d="M9.12687 35.6169C8.66189 34.8286 8.10273 34.0966 7.46133 33.4416C7.27594 33.252 6.9844 33.5424 7.16979 33.7306C7.78577 34.3618 8.32101 35.0613 8.76805 35.8185C8.9026 36.0467 9.26143 35.8437 9.12687 35.6155V35.6169Z" fill="white"/>
<path d="M9.6442 36.4156C9.60682 36.346 9.56944 36.2763 9.53356 36.2082C9.52011 36.183 9.50216 36.1622 9.47824 36.1474C9.45731 36.1296 9.43339 36.1163 9.40648 36.1104C9.37957 36.103 9.35415 36.1015 9.32724 36.1074C9.30033 36.1074 9.27491 36.1163 9.25099 36.1311C9.23604 36.1415 9.22109 36.1534 9.20763 36.1637C9.18072 36.1904 9.16278 36.2215 9.15381 36.2571C9.15231 36.2749 9.14932 36.2912 9.14783 36.3089C9.14783 36.3445 9.1568 36.3786 9.17474 36.4097C9.21212 36.4794 9.24949 36.549 9.28538 36.6172C9.29883 36.6424 9.31677 36.6631 9.34069 36.6779C9.36163 36.6957 9.38555 36.709 9.41246 36.715C9.43937 36.7224 9.46479 36.7239 9.4917 36.7179C9.51861 36.7179 9.54403 36.709 9.56795 36.6942L9.61131 36.6616C9.63822 36.6349 9.65616 36.6038 9.66513 36.5683C9.66812 36.5505 9.66962 36.5342 9.67261 36.5164C9.67261 36.4808 9.66363 36.4468 9.64569 36.4156H9.6442Z" fill="white"/>
<path d="M25.1618 9.39176C24.4157 11.1003 23.5844 12.7733 22.6709 14.4003C22.2224 15.1975 21.7485 15.9755 21.424 16.832C21.2626 17.2572 21.125 17.6914 20.9531 18.1137C20.7871 18.5168 20.5629 18.8917 20.3954 19.2933C20.1098 19.9793 20.0725 20.9618 20.8484 21.3559C21.0846 21.476 21.291 21.1203 21.0532 21.0003C20.3864 20.6625 20.6137 19.7793 20.8649 19.2532C21.0443 18.8783 21.2371 18.5138 21.3911 18.1256C21.5466 17.7329 21.6752 17.3313 21.8247 16.9372C22.1327 16.1251 22.5917 15.3872 23.0163 14.6315C23.4439 13.8713 23.8536 13.0993 24.2453 12.3198C24.6953 11.4233 25.1214 10.5135 25.5221 9.59477C25.6267 9.3562 25.2679 9.15023 25.1633 9.39176H25.1618Z" fill="white"/>
<path d="M21.7395 21.5975C21.7275 21.5738 21.7156 21.5515 21.7051 21.5278C21.6916 21.5026 21.6737 21.4819 21.6498 21.4671C21.6288 21.4493 21.6049 21.436 21.578 21.43C21.5511 21.4226 21.5257 21.4211 21.4988 21.4271C21.4719 21.4271 21.4464 21.436 21.4225 21.4508L21.3792 21.4834C21.3523 21.5101 21.3343 21.5412 21.3253 21.5767C21.3239 21.5945 21.3209 21.6108 21.3194 21.6286C21.3194 21.6642 21.3283 21.6982 21.3463 21.7294C21.3582 21.7531 21.3702 21.7753 21.3807 21.799C21.3941 21.8242 21.4121 21.8449 21.436 21.8598C21.4569 21.8775 21.4808 21.8909 21.5077 21.8968C21.5347 21.9042 21.5601 21.9057 21.587 21.8998C21.6139 21.8998 21.6393 21.8909 21.6632 21.8761C21.6782 21.8657 21.6931 21.8538 21.7066 21.8435C21.7335 21.8168 21.7514 21.7857 21.7604 21.7501C21.7619 21.7323 21.7649 21.716 21.7664 21.6982C21.7664 21.6627 21.7574 21.6286 21.7395 21.5975Z" fill="white"/>
<path d="M20.1368 18.5257C19.9768 18.3064 19.7869 18.1093 19.6195 17.8959C19.4401 17.6677 19.2816 17.4232 19.1351 17.1728C19.002 16.9446 18.6432 17.1461 18.7762 17.3758C19.0468 17.8426 19.3862 18.2412 19.7241 18.659C20.0516 19.0651 20.1128 19.5629 20.1577 20.0638C20.1801 20.3246 20.5943 20.3276 20.5703 20.0638C20.5225 19.5289 20.4627 18.9747 20.1368 18.5257Z" fill="white"/>
<path d="M22.2329 12.5999C22.0535 12.3258 21.8098 12.0961 21.5197 11.939C21.4255 11.8871 21.2895 11.9168 21.2386 12.0161C21.1878 12.1139 21.2147 12.2398 21.3164 12.2961C21.3851 12.3332 21.4509 12.3761 21.5152 12.4221C21.6274 12.5095 21.729 12.6103 21.8172 12.7214C21.8367 12.7481 21.8561 12.7747 21.8755 12.8029C21.9338 12.8933 22.0594 12.9407 22.1566 12.88C22.2463 12.8236 22.2972 12.6962 22.2344 12.5999H22.2329Z" fill="white"/>
<path d="M22.6111 12.9837C22.345 12.9837 22.345 13.3927 22.6111 13.3927C22.8773 13.3927 22.8773 12.9837 22.6111 12.9837Z" fill="white"/>
<path d="M22.1103 13.6579C22.0953 13.609 22.0624 13.5527 22.0131 13.532C21.886 13.4786 21.7664 13.4104 21.6543 13.3289C21.572 13.2637 21.4958 13.1926 21.4255 13.1141C21.3538 13.0326 21.2043 13.037 21.134 13.1141C21.0533 13.2015 21.0577 13.3171 21.134 13.403C21.3164 13.612 21.5511 13.7824 21.8083 13.8891C21.8606 13.9098 21.907 13.9232 21.9623 13.9083C22.0116 13.895 22.0654 13.858 22.0894 13.812C22.1133 13.7661 22.1252 13.7098 22.1088 13.6594L22.1103 13.6579Z" fill="white"/>
<path d="M19.3832 10.961C19.2995 10.9254 19.2203 10.8825 19.144 10.8351C19.1246 10.8232 19.1051 10.8099 19.0857 10.7965C19.0782 10.7906 19.0708 10.7862 19.0633 10.7802C19.0304 10.7521 18.996 10.7254 18.9631 10.6972C18.8988 10.638 18.8375 10.5743 18.7837 10.5061C18.7837 10.5061 18.7837 10.5061 18.7852 10.5091C18.7807 10.5002 18.7732 10.4928 18.7673 10.4839C18.7538 10.4646 18.7403 10.4468 18.7284 10.4276C18.703 10.389 18.679 10.349 18.6566 10.309C18.6043 10.2157 18.4682 10.1742 18.3755 10.232C18.2799 10.2912 18.2425 10.4113 18.2978 10.512C18.4922 10.8647 18.8091 11.1581 19.1814 11.3181C19.2322 11.3404 19.2801 11.3522 19.3354 11.3374C19.3847 11.3241 19.4386 11.287 19.4625 11.2411C19.5088 11.1507 19.4909 11.0069 19.3847 10.9625L19.3832 10.961Z" fill="white"/>
<path d="M18.7818 10.5045C18.7586 10.4632 18.7702 10.4898 18.7818 10.5045V10.5045Z" fill="white"/>
<path d="M19.7062 10.0334L19.6733 9.99041C19.6464 9.96374 19.615 9.94596 19.5791 9.93707C19.5447 9.92521 19.5088 9.91336 19.4744 9.9015C19.4475 9.89409 19.4221 9.89261 19.3952 9.89854C19.3683 9.89854 19.3429 9.90743 19.319 9.92225C19.2935 9.93558 19.2726 9.95337 19.2577 9.97708C19.2397 9.99782 19.2263 10.0215 19.2203 10.0482C19.2188 10.066 19.2158 10.0823 19.2143 10.1001C19.2143 10.1356 19.2233 10.1697 19.2412 10.2008C19.2517 10.2156 19.2636 10.2305 19.2741 10.2438C19.301 10.2705 19.3324 10.2883 19.3683 10.2971C19.4027 10.309 19.4386 10.3209 19.4729 10.3327C19.4999 10.3401 19.5253 10.3416 19.5522 10.3357C19.5791 10.3357 19.6045 10.3268 19.6284 10.312C19.6539 10.2986 19.6748 10.2808 19.6897 10.2571C19.7077 10.2364 19.7211 10.2127 19.7271 10.186C19.7301 10.1682 19.7316 10.1519 19.7331 10.1341C19.7331 10.0986 19.7241 10.0645 19.7062 10.0334Z" fill="white"/>
<path d="M22.5812 6.34662C22.5409 6.30958 22.4975 6.29476 22.4452 6.28883C22.4482 6.28883 22.4527 6.28883 22.4557 6.28883C22.3241 6.27105 22.1955 6.23845 22.0729 6.19103C22.0296 6.17177 21.9862 6.15251 21.9443 6.13176C21.8486 6.08138 21.7141 6.10805 21.6633 6.20881C21.6139 6.30513 21.6393 6.43405 21.741 6.48888C21.9593 6.60446 22.1925 6.67114 22.4377 6.69781C22.4871 6.70374 22.5498 6.67114 22.5842 6.63854C22.6201 6.60298 22.647 6.54519 22.644 6.49332C22.641 6.43998 22.6246 6.38515 22.5842 6.3481L22.5812 6.34662Z" fill="white"/>
<path d="M19.1904 6.31106C18.6267 6.23697 18.1274 5.98209 17.7461 5.57459C17.6699 5.49309 17.5308 5.49902 17.4546 5.57459C17.3723 5.65609 17.3783 5.78205 17.4546 5.86355C17.8792 6.31847 18.4652 6.6252 19.0857 6.7067C19.1963 6.72152 19.307 6.67707 19.3384 6.56C19.3638 6.46368 19.3025 6.32439 19.1904 6.30958V6.31106Z" fill="white"/>
<path d="M16.5022 8.41227C16.4932 8.37671 16.4753 8.34559 16.4484 8.31892C16.3153 8.16185 16.1314 8.04923 15.934 7.98699C15.8862 7.97218 15.8219 7.98255 15.78 8.00626C15.7352 8.03145 15.6933 8.08183 15.6829 8.13221C15.6724 8.18259 15.6739 8.24038 15.7023 8.28484C15.7322 8.33226 15.7741 8.36486 15.8294 8.38116C15.8428 8.3856 15.8548 8.39005 15.8683 8.39449C15.9281 8.41968 15.9834 8.45228 16.0357 8.48933C16.0791 8.52489 16.1194 8.56342 16.1568 8.60639C16.1897 8.64492 16.254 8.66567 16.3033 8.66567C16.3527 8.66567 16.414 8.64344 16.4498 8.60639C16.4857 8.56787 16.5126 8.516 16.5097 8.46117C16.5082 8.44339 16.5052 8.42709 16.5037 8.40931L16.5022 8.41227Z" fill="white"/>
<path d="M16.2091 9.1843C16.1957 9.17986 16.1837 9.17393 16.1703 9.16948C16.1463 9.15911 16.1224 9.14874 16.0985 9.13837C16.0477 9.11614 15.9983 9.09095 15.9505 9.06576C15.8563 9.01538 15.7636 8.95907 15.6769 8.89683C15.6679 8.88942 15.6574 8.88349 15.6485 8.87608C15.6455 8.8746 15.6335 8.86423 15.626 8.85978C15.6216 8.85682 15.6171 8.85238 15.6156 8.85238C15.6036 8.84348 15.5932 8.83459 15.5812 8.8257C15.5408 8.7931 15.502 8.75902 15.4631 8.72346C15.3823 8.64937 15.3061 8.56935 15.2358 8.48488C15.1671 8.4019 15.0146 8.40783 14.9443 8.48488C14.8636 8.57231 14.8695 8.68641 14.9443 8.77384C15.2538 9.13985 15.6574 9.4125 16.106 9.58143C16.2076 9.61996 16.3362 9.53549 16.3586 9.43473C16.3841 9.31618 16.3198 9.22579 16.2106 9.1843H16.2091Z" fill="white"/>
<path d="M22.9834 17.029C22.9744 16.9935 22.9565 16.9624 22.9296 16.9357C22.8713 16.8897 22.813 16.8423 22.7547 16.7964C22.7352 16.7756 22.7128 16.7608 22.6859 16.7534C22.662 16.7416 22.6366 16.7356 22.6081 16.7371C22.5812 16.7371 22.5543 16.7416 22.5304 16.7534C22.5035 16.7623 22.4811 16.7756 22.4616 16.7964L22.4287 16.8394C22.4108 16.8705 22.4018 16.9046 22.4018 16.9401C22.4033 16.9579 22.4063 16.9742 22.4078 16.992C22.4168 17.0276 22.4347 17.0587 22.4616 17.0853C22.5199 17.1313 22.5782 17.1787 22.6366 17.2246C22.656 17.2454 22.6784 17.2602 22.7053 17.2676C22.7293 17.2795 22.7547 17.2854 22.7831 17.2839C22.81 17.2839 22.8369 17.2795 22.8608 17.2676C22.8877 17.2587 22.9102 17.2454 22.9296 17.2246C22.9401 17.2098 22.952 17.195 22.9625 17.1817C22.9804 17.1505 22.9894 17.1165 22.9894 17.0809L22.9834 17.029Z" fill="white"/>
<path d="M24.5712 13.7557C24.5622 13.7201 24.5443 13.689 24.5174 13.6623C24.477 13.6105 24.4277 13.572 24.3754 13.5319C24.323 13.4934 24.2662 13.4682 24.2049 13.4445C24.178 13.4371 24.1526 13.4356 24.1257 13.4416C24.0988 13.4416 24.0733 13.4504 24.0494 13.4653C24.024 13.4786 24.0031 13.4964 23.9881 13.5201C23.9702 13.5408 23.9567 13.5645 23.9507 13.5912C23.9403 13.6416 23.9418 13.6994 23.9702 13.7438L24.0031 13.7868C24.0285 13.812 24.0584 13.8283 24.0913 13.8372C24.0778 13.8313 24.0644 13.8268 24.0509 13.8209C24.0823 13.8342 24.1122 13.8505 24.1406 13.8683C24.1705 13.8935 24.1989 13.9202 24.2229 13.9498C24.2423 13.9706 24.2647 13.9854 24.2916 13.9928C24.3156 14.0046 24.341 14.0106 24.3694 14.0091C24.3963 14.0091 24.4232 14.0046 24.4471 13.9928C24.474 13.9839 24.4965 13.9706 24.5159 13.9498L24.5488 13.9068C24.5667 13.8757 24.5757 13.8416 24.5757 13.8061C24.5742 13.7883 24.5712 13.772 24.5697 13.7542L24.5712 13.7557Z" fill="white"/>
<path d="M31.8344 18.013C31.8045 17.967 31.7626 17.93 31.7073 17.9167C31.5667 17.8811 31.4277 17.8455 31.2872 17.81C31.2363 17.7966 31.178 17.804 31.1332 17.8307C31.0883 17.8559 31.0465 17.9063 31.036 17.9567C31.0255 18.007 31.027 18.0648 31.0554 18.1093C31.0853 18.1552 31.1272 18.1923 31.1825 18.2056C31.323 18.2412 31.4621 18.2767 31.6026 18.3123C31.6535 18.3256 31.7118 18.3182 31.7566 18.2916C31.8015 18.2664 31.8433 18.216 31.8538 18.1656C31.8643 18.1152 31.8628 18.0574 31.8344 18.013Z" fill="white"/>
<path d="M32.4967 18.8858C32.4384 18.7924 32.3143 18.7509 32.2156 18.8087C32.1812 18.8295 32.1453 18.8472 32.1095 18.865C32.093 18.8724 32.0766 18.8813 32.0601 18.8872C32.0497 18.8902 32.0362 18.8947 32.0332 18.8961C31.9629 18.9198 31.8897 18.9391 31.8149 18.951C31.8089 18.951 31.8015 18.9524 31.7955 18.9539C31.7775 18.9539 31.7581 18.9569 31.7402 18.9584C31.7028 18.9613 31.6654 18.9613 31.628 18.9613C31.5922 18.9613 31.5503 18.9628 31.5159 18.9539C31.5667 18.9673 31.4995 18.951 31.489 18.9495C31.4681 18.9465 31.4471 18.9421 31.4262 18.9361C31.3215 18.9124 31.1974 18.9717 31.1735 19.0828C31.1511 19.1881 31.2079 19.3081 31.3215 19.3333C31.6953 19.4163 32.0915 19.3585 32.4219 19.1673C32.5146 19.1125 32.5595 18.9821 32.4997 18.8887L32.4967 18.8858Z" fill="white"/>
<path d="M31.5398 13.3067C31.5234 13.2563 31.492 13.2045 31.4427 13.1808C31.3021 13.1126 31.1616 13.043 31.021 12.9748C30.9732 12.9511 30.9194 12.9407 30.867 12.9555C30.8177 12.9689 30.7639 13.0059 30.74 13.0518C30.716 13.0978 30.7041 13.1541 30.7205 13.2045C30.737 13.2549 30.7684 13.3067 30.8177 13.3304C30.9582 13.3986 31.0988 13.4682 31.2393 13.5364C31.2872 13.5601 31.341 13.5705 31.3933 13.5557C31.4427 13.5423 31.4965 13.5053 31.5204 13.4593C31.5443 13.4134 31.5563 13.3571 31.5398 13.3067Z" fill="white"/>
<path d="M29.0505 12.3361L29.0311 12.2872C29.0116 12.2546 28.9862 12.2294 28.9533 12.2102L28.8128 12.1405C28.7889 12.1257 28.7635 12.1183 28.7365 12.1168C28.7096 12.1109 28.6842 12.1124 28.6573 12.1198C28.6304 12.1257 28.6065 12.1376 28.5855 12.1568C28.5616 12.1716 28.5437 12.1924 28.5302 12.2176C28.5227 12.2339 28.5168 12.2502 28.5093 12.2665C28.5003 12.3006 28.5003 12.3361 28.5093 12.3702C28.5168 12.3865 28.5227 12.4028 28.5302 12.4191C28.5497 12.4517 28.5751 12.4769 28.608 12.4962L28.7485 12.5658C28.7724 12.5806 28.7978 12.588 28.8248 12.5895C28.8517 12.5954 28.8771 12.594 28.904 12.5866C28.9309 12.5806 28.9548 12.5688 28.9758 12.5495C28.9997 12.5347 29.0176 12.5139 29.0311 12.4888C29.0371 12.4725 29.0445 12.4562 29.0505 12.4399C29.0595 12.4058 29.0595 12.3702 29.0505 12.3361Z" fill="white"/>
<path d="M12.8646 4.95817C12.606 5.22934 12.3055 5.45457 12.0034 5.67536C11.7343 5.87245 11.4353 6.10065 11.084 6.10361C10.8178 6.10657 10.8178 6.51555 11.084 6.51259C11.5011 6.50963 11.8554 6.28735 12.1814 6.05026C12.5222 5.80132 12.8646 5.55237 13.1562 5.24712C13.3386 5.05597 13.047 4.76553 12.8646 4.95817Z" fill="white"/>
<path d="M27.0366 15.1723C27.0202 15.119 26.9873 15.076 26.9394 15.0464C26.8004 14.9604 26.6329 14.916 26.47 14.9175C26.4161 14.9175 26.3608 14.9397 26.3234 14.9767C26.2861 15.0138 26.2606 15.0701 26.2636 15.1219C26.2666 15.1753 26.2831 15.2301 26.3234 15.2672C26.3638 15.3042 26.4131 15.3279 26.47 15.3264C26.4909 15.3264 26.5133 15.3279 26.5342 15.3309C26.5746 15.3383 26.615 15.3487 26.6539 15.362C26.6823 15.3739 26.7092 15.3872 26.7361 15.4035C26.7794 15.4302 26.8422 15.4361 26.8901 15.4228C26.9394 15.4094 26.9932 15.3724 27.0172 15.3264C27.0411 15.2805 27.053 15.2242 27.0366 15.1738V15.1723Z" fill="white"/>
<path d="M25.8869 17.7077C25.6641 17.6395 25.4294 17.6055 25.1961 17.6084C25.0885 17.6084 24.9853 17.7018 24.9898 17.8129C24.9943 17.9226 25.081 18.0189 25.1961 18.0174C25.2829 18.0174 25.3696 18.0219 25.4548 18.0307C25.5654 18.047 25.6746 18.0693 25.7822 18.1034C25.8854 18.1359 26.0125 18.0619 26.0349 17.9567C26.0588 17.844 25.9975 17.7403 25.8869 17.7062V17.7077Z" fill="white"/>
<path d="M26.8004 18.0619C26.7944 18.0456 26.7869 18.0293 26.7809 18.013C26.7615 17.9804 26.7361 17.9552 26.7032 17.9359C26.6808 17.9241 26.6583 17.9137 26.6359 17.9033C26.612 17.8885 26.5866 17.8811 26.5597 17.8796C26.5328 17.8737 26.5073 17.8752 26.4804 17.8826C26.4535 17.8885 26.4296 17.9003 26.4087 17.9196C26.3847 17.9344 26.3668 17.9552 26.3533 17.9804C26.3474 17.9967 26.3399 18.013 26.3339 18.0293C26.3249 18.0633 26.3249 18.0989 26.3339 18.133C26.3399 18.1493 26.3474 18.1656 26.3533 18.1819C26.3728 18.2145 26.3982 18.2397 26.4311 18.2589C26.4535 18.2693 26.4759 18.2812 26.4984 18.2915C26.5223 18.3064 26.5477 18.3138 26.5746 18.3153C26.6015 18.3212 26.6269 18.3197 26.6539 18.3123C26.6808 18.3064 26.7047 18.2945 26.7256 18.2752C26.7495 18.2604 26.7675 18.2397 26.7809 18.2145C26.7869 18.1982 26.7944 18.1819 26.8004 18.1656C26.8093 18.1315 26.8093 18.0959 26.8004 18.0619Z" fill="white"/>
<path d="M8.86373 29.8334C8.85775 29.8067 8.84579 29.783 8.82635 29.7623C8.8114 29.7386 8.79047 29.7208 8.76505 29.7075C8.71871 29.6837 8.66189 29.6719 8.61106 29.6867C8.55873 29.703 8.51089 29.7341 8.48398 29.783C8.43165 29.8764 8.37932 29.9712 8.32699 30.0646C8.30158 30.1105 8.2941 30.1668 8.30755 30.2172C8.31354 30.2439 8.3255 30.2676 8.34493 30.2883C8.35988 30.312 8.38081 30.3298 8.40623 30.3432C8.45258 30.3669 8.50939 30.3787 8.56023 30.3624C8.61255 30.3461 8.6604 30.315 8.68731 30.2661C8.73964 30.1727 8.79197 30.0779 8.84429 29.9846C8.86971 29.9386 8.87719 29.8823 8.86373 29.8319V29.8334Z" fill="white"/>
<path d="M33.9365 25.668C33.5627 25.7762 33.2024 25.9288 32.8735 26.1333C32.5326 26.3452 32.2411 26.6105 31.9495 26.8831C31.6729 27.1424 31.3814 27.4092 31.0151 27.5381C30.8835 27.584 30.7505 27.6137 30.6144 27.6329C30.4604 27.5662 30.3064 27.504 30.1479 27.4477C28.9847 27.0313 27.7543 26.9365 26.5313 27.0906C25.863 27.175 25.2037 27.3232 24.5518 27.4921C24.2229 27.5781 23.8954 27.667 23.5695 27.7604C23.3378 27.827 23.0926 27.9263 22.9446 28.1264C22.8773 28.2182 22.8384 28.3279 22.8444 28.4435C22.8519 28.5917 22.9431 28.6998 23.0014 28.8287C23.109 29.0629 23.0507 29.3415 22.9326 29.5593C22.656 30.072 22.058 30.2928 21.5556 30.5254C20.3267 31.0944 19.2263 31.9257 18.3457 32.9482C18.3382 32.9556 18.3337 32.9645 18.3292 32.9719C18.3158 32.9778 18.3023 32.9838 18.2888 32.9912C18.0541 33.1156 18.2589 33.4713 18.4937 33.3468C18.6955 33.2401 18.9228 33.2549 19.144 33.2668C19.4072 33.2816 19.6688 33.2905 19.932 33.2831C20.4463 33.2697 20.9591 33.212 21.4689 33.1423C22.4377 33.0075 23.4021 32.8311 24.3574 32.6222C26.2741 32.2014 28.1595 31.6338 29.9894 30.9285C30.7579 30.6321 31.5174 30.312 32.265 29.9683C32.4773 30.1076 32.6896 30.2483 32.9064 30.3832C33.0095 30.4469 33.1232 30.3906 33.1875 30.3061C33.63 29.7238 33.8199 29.0066 33.944 28.2997C34.0905 27.4714 34.2056 26.6386 34.3252 25.8058C34.3611 25.5613 34.0038 25.4532 33.935 25.6651L33.9365 25.668Z" fill="white"/>
<path d="M27.3969 51.0086C20.8724 51.542 15.6948 51.0782 13.1801 50.7522C13.1517 50.7478 13.1248 50.7448 13.0964 50.7418C12.6149 50.6766 12.2352 50.6203 11.9691 50.5774C11.9571 50.5774 11.9466 50.5729 11.9362 50.5714C11.6596 50.527 11.5161 50.4988 11.5161 50.4988L11.6775 49.2556L11.6835 49.2067L12.3309 44.1907L12.6434 41.762L12.6733 41.5383V41.522L12.7091 41.2553C12.9558 41.199 13.1995 41.1456 13.4417 41.0908C14.1773 40.9278 14.8905 40.7722 15.5797 40.624C15.5932 40.624 15.6081 40.6196 15.6201 40.6151C16.4484 40.4403 17.2438 40.2758 17.9988 40.1246C18.2305 40.0772 18.4593 40.0313 18.682 39.9868C19.2606 39.8727 19.8138 39.7646 20.3371 39.6653C24.1885 38.9333 26.5537 38.5954 26.5537 38.5954L26.6554 40.1098L26.7585 41.6198L27.3955 51.0071L27.3969 51.0086Z" fill="white"/>
<path d="M37.8432 23.9195C37.7071 23.6202 37.5173 23.3475 37.3662 23.0571C37.0508 22.4495 36.9102 21.7753 36.7652 21.1129C36.695 20.7899 36.6232 20.4654 36.532 20.1468C36.4483 19.8519 36.3601 19.5155 36.1971 19.2518C36.0416 18.9984 35.7515 18.8784 35.5093 19.0977C35.2955 19.2903 35.1206 19.5526 34.9636 19.7912C34.6482 20.2713 34.4149 20.8077 34.2669 21.3604C33.926 22.6333 34.0382 24.0099 34.6198 25.1983C33.7975 26.2667 33.1022 27.421 32.5535 28.6524C31.3889 29.1785 30.0642 29.0866 28.8173 29.1992C27.3895 29.3281 26.0529 29.8675 24.7058 30.3209C23.3916 30.764 22.0565 31.173 20.7797 31.7153C19.6165 32.2103 18.4907 32.8548 17.6235 33.7825C16.8012 34.6627 16.2077 35.7799 16.1284 36.9847C15.5199 36.6513 14.9129 36.3134 14.3089 35.9726C14.0802 36.0926 13.817 36.14 13.5614 36.1682C13.4388 36.1815 13.3162 36.1889 13.1921 36.1963C13.1622 36.1978 13.1323 36.2008 13.1024 36.2038C13.0829 36.2067 13.062 36.2112 13.0426 36.2126C13.1681 37.6248 13.1532 39.0459 12.9977 40.4551C12.9813 40.6003 13.1397 40.6699 13.2564 40.6536C16.2809 40.221 19.3997 40.1498 22.4332 40.5321C23.2286 40.6329 24.027 40.7974 24.7447 41.1663C24.9345 41.2642 25.105 41.0522 25.0392 40.9026C25.0078 40.4566 25.0033 40.0105 25.0257 39.566C25.6866 39.1185 26.4192 38.7762 27.1518 38.4591C28.0563 38.0679 28.9638 37.6841 29.8549 37.2603C31.6221 36.4186 33.34 35.4584 34.9083 34.2878C35.7814 33.6358 36.6082 32.9245 37.3633 32.1406C37.4021 32.1006 37.4186 32.0561 37.4201 32.0117C37.447 31.9806 37.4649 31.9406 37.4694 31.8917C37.6114 30.3328 37.752 28.7754 37.894 27.2165C37.9299 26.8209 37.9658 26.4267 38.0017 26.0311C38.036 25.6577 38.0824 25.2828 38.0689 24.9064C38.057 24.5626 37.9852 24.2336 37.8417 23.921L37.8432 23.9195Z" fill="#387A88"/>
<path d="M37.0807 22.3117C37.0269 22.2169 36.8953 22.1769 36.7996 22.2347C36.7518 22.2628 36.7577 22.2613 36.7129 22.2732C36.7084 22.2732 36.68 22.2806 36.674 22.2821C36.6591 22.2836 36.6441 22.285 36.6292 22.285C36.6112 22.285 36.5933 22.285 36.5753 22.2836C36.5365 22.2806 36.5768 22.2865 36.541 22.2776C36.52 22.2717 36.4976 22.2673 36.4767 22.2613C36.4767 22.2613 36.4408 22.2495 36.4378 22.2495C36.4019 22.2347 36.3675 22.2154 36.3346 22.1961C36.3212 22.1887 36.3092 22.1798 36.2958 22.1709C36.2928 22.168 36.2673 22.1472 36.2629 22.1443C36.1926 22.082 36.1492 22.0302 36.1044 21.9605C36.0072 21.8138 35.9384 21.6493 35.8771 21.4967C35.7934 21.2863 35.7112 21.0774 35.6274 20.8669C35.5871 20.7647 35.4914 20.6906 35.3748 20.7202C35.2761 20.7454 35.1864 20.8669 35.2268 20.9707C35.3195 21.2033 35.4092 21.436 35.5034 21.6686C35.5901 21.882 35.6813 22.0894 35.8233 22.2717C36.0909 22.617 36.5948 22.8333 37.0029 22.5888C37.0986 22.5325 37.1375 22.408 37.0807 22.3102V22.3117Z" fill="white"/>
<path d="M17.0644 34.8998C17.1017 34.8642 17.1242 34.8064 17.1242 34.7545C17.1242 34.7027 17.1017 34.6449 17.0644 34.6093C17.0255 34.5738 16.9732 34.5471 16.9178 34.55C16.8625 34.553 16.8132 34.5708 16.7713 34.6093C16.6442 34.7293 16.5515 34.8894 16.5112 35.0583C16.4992 35.1087 16.5052 35.165 16.5306 35.2109C16.556 35.2554 16.6069 35.2969 16.6577 35.3073C16.7085 35.3176 16.7668 35.3161 16.8117 35.288C16.858 35.2584 16.8969 35.2154 16.9089 35.162C16.9149 35.1339 16.9253 35.1072 16.9343 35.0805C16.9522 35.0405 16.9747 35.002 17.0001 34.965C17.0195 34.9412 17.0389 34.919 17.0614 34.8983L17.0644 34.8998Z" fill="white"/>
<path d="M35.7246 18.9465C35.2178 19.071 34.8066 19.6104 34.5495 20.0312C34.2639 20.4965 34.0815 21.0255 33.9873 21.5604C33.7691 22.8022 34.0157 24.0558 34.2684 25.2724C34.2594 25.2798 34.249 25.2857 34.2415 25.2931C33.95 25.545 33.7496 25.9303 33.5508 26.2533C33.1022 26.9794 32.715 27.7426 32.3906 28.5309C32.3487 28.6346 32.3622 28.7487 32.4683 28.811C32.555 28.8613 32.7075 28.8362 32.7494 28.7339C33.0499 28.0034 33.4028 27.2951 33.8109 26.6179C33.9978 26.3067 34.1832 25.9644 34.4239 25.6932C34.533 25.5702 34.6527 25.4887 34.8186 25.4635C35.007 25.4354 35.1939 25.4443 35.3763 25.382C35.6275 25.2961 35.5228 24.9004 35.2716 24.9864C35.0907 25.0486 34.9008 25.0368 34.714 25.0679C34.6915 25.0723 34.6721 25.0783 34.6497 25.0827C34.4239 23.9995 34.1996 22.8763 34.3686 21.7709C34.4418 21.2922 34.5824 20.821 34.8141 20.3942C34.9278 20.1838 35.0623 19.9853 35.2208 19.806C35.3838 19.6237 35.5811 19.4029 35.8278 19.3422C36.0865 19.2784 35.9818 18.8828 35.7231 18.9465H35.7246Z" fill="white"/>
<path d="M32.4564 28.4538C28.1894 28.9651 24.0734 30.3506 20.0994 31.9272C19.5612 32.1406 19.0349 32.3762 18.5565 32.7037C18.1064 33.0134 17.7013 33.3809 17.3514 33.8002C17.184 34.0018 17.474 34.2937 17.643 34.0892C18.2844 33.3186 19.0887 32.7822 20.0142 32.3984C20.977 31.9998 21.9623 31.6442 22.9431 31.2915C24.9031 30.5877 26.8931 29.9564 28.9234 29.4881C30.0881 29.2199 31.2663 29.0051 32.4534 28.8628C32.715 28.8317 32.718 28.4212 32.4534 28.4538H32.4564Z" fill="white"/>
</svg>
