<svg width="24" height="24" viewBox="0 0 24 24" fill="none" xmlns="http://www.w3.org/2000/svg">
<path d="M21 12.1875C20.674 12.1871 20.3526 12.2646 20.0625 12.4134V12C20.0625 8.18344 17.3147 6.35437 15.1059 4.88437C13.7409 3.97594 12.5625 3.1875 12.5625 2.25C12.5625 2.10082 12.5032 1.95774 12.3977 1.85225C12.2923 1.74676 12.1492 1.6875 12 1.6875C11.8508 1.6875 11.7077 1.74676 11.6023 1.85225C11.4968 1.95774 11.4375 2.10082 11.4375 2.25C11.4375 3.1875 10.2591 3.97594 8.89406 4.88437C6.68531 6.35437 3.9375 8.18344 3.9375 12V12.4134C3.62311 12.253 3.27282 12.1759 2.92013 12.1896C2.56744 12.2033 2.22416 12.3072 1.92313 12.4915C1.62211 12.6758 1.37341 12.9342 1.20084 13.2421C1.02827 13.55 0.937595 13.897 0.9375 14.25V19.5C0.9375 19.6492 0.996763 19.7923 1.10225 19.8977C1.20774 20.0032 1.35082 20.0625 1.5 20.0625H7.5C7.64918 20.0625 7.79226 20.0032 7.89775 19.8977C8.00324 19.7923 8.0625 19.6492 8.0625 19.5V16.5C8.0625 16.2514 8.16127 16.0129 8.33709 15.8371C8.5129 15.6613 8.75136 15.5625 9 15.5625C9.24864 15.5625 9.4871 15.6613 9.66291 15.8371C9.83873 16.0129 9.9375 16.2514 9.9375 16.5V19.5C9.9375 19.6492 9.99676 19.7923 10.1023 19.8977C10.2077 20.0032 10.3508 20.0625 10.5 20.0625H13.5C13.6492 20.0625 13.7923 20.0032 13.8977 19.8977C14.0032 19.7923 14.0625 19.6492 14.0625 19.5V16.5C14.0625 16.2514 14.1613 16.0129 14.3371 15.8371C14.5129 15.6613 14.7514 15.5625 15 15.5625C15.2486 15.5625 15.4871 15.6613 15.6629 15.8371C15.8387 16.0129 15.9375 16.2514 15.9375 16.5V19.5C15.9375 19.6492 15.9968 19.7923 16.1023 19.8977C16.2077 20.0032 16.3508 20.0625 16.5 20.0625H22.5C22.6492 20.0625 22.7923 20.0032 22.8977 19.8977C23.0032 19.7923 23.0625 19.6492 23.0625 19.5V14.25C23.0625 13.703 22.8452 13.1784 22.4584 12.7916C22.0716 12.4048 21.547 12.1875 21 12.1875ZM9.5175 5.82094C10.4897 5.17406 11.4281 4.54969 12 3.79875C12.5719 4.54875 13.5103 5.17406 14.4825 5.82094C16.4447 7.125 18.6562 8.59781 18.9122 11.4375H5.08781C5.34375 8.59781 7.55531 7.125 9.5175 5.82094ZM2.0625 14.25C2.0625 14.0014 2.16127 13.7629 2.33709 13.5871C2.5129 13.4113 2.75136 13.3125 3 13.3125C3.24864 13.3125 3.4871 13.4113 3.66291 13.5871C3.83873 13.7629 3.9375 14.0014 3.9375 14.25V18.9375H2.0625V14.25ZM15 14.4375C14.453 14.4375 13.9284 14.6548 13.5416 15.0416C13.1548 15.4284 12.9375 15.953 12.9375 16.5V18.9375H11.0625V16.5C11.0625 15.953 10.8452 15.4284 10.4584 15.0416C10.0716 14.6548 9.54701 14.4375 9 14.4375C8.45299 14.4375 7.92839 14.6548 7.54159 15.0416C7.1548 15.4284 6.9375 15.953 6.9375 16.5V18.9375H5.0625V12.5625H18.9375V18.9375H17.0625V16.5C17.0625 15.953 16.8452 15.4284 16.4584 15.0416C16.0716 14.6548 15.547 14.4375 15 14.4375ZM21.9375 18.9375H20.0625V14.25C20.0625 14.0014 20.1613 13.7629 20.3371 13.5871C20.5129 13.4113 20.7514 13.3125 21 13.3125C21.2486 13.3125 21.4871 13.4113 21.6629 13.5871C21.8387 13.7629 21.9375 14.0014 21.9375 14.25V18.9375Z" fill="#A1A1A1"/>
</svg>
