<svg width="24" height="24" viewBox="0 0 24 24" fill="currentColor" xmlns="http://www.w3.org/2000/svg">
<g clip-path="url(#clip0_7_7)">
<path d="M13.4989 7.36269C14.5522 7.36255 15.587 7.63968 16.4992 8.16622C17.4114 8.69277 18.169 9.45019 18.6957 10.3623C19.2224 11.2745 19.4997 12.3092 19.4997 13.3625C19.4998 14.4158 19.2225 15.4505 18.6959 16.3627H21.4989C21.7641 16.3627 22.0185 16.4681 22.206 16.6556C22.3935 16.8431 22.4989 17.0975 22.4989 17.3627C22.4989 17.6279 22.3935 17.8823 22.206 18.0698C22.0185 18.2573 21.7641 18.3627 21.4989 18.3627H5.49889C5.23368 18.3627 4.97932 18.2573 4.79179 18.0698C4.60425 17.8823 4.49889 17.6279 4.49889 17.3627C4.49889 17.0975 4.60425 16.8431 4.79179 16.6556C4.97932 16.4681 5.23368 16.3627 5.49889 16.3627H8.30189C7.77525 15.4505 7.49801 14.4158 7.49804 13.3625C7.49808 12.3092 7.77539 11.2745 8.3021 10.3623C8.82881 9.45019 9.58636 8.69277 10.4986 8.16622C11.4108 7.63968 12.4456 7.36255 13.4989 7.36269ZM13.4989 9.36269C12.7053 9.36264 11.9295 9.59866 11.2704 10.0408C10.6113 10.4828 10.0986 11.111 9.79757 11.8453C9.49651 12.5796 9.4207 13.3869 9.57977 14.1645C9.73885 14.942 10.1256 15.6546 10.6909 16.2117L10.8539 16.3617H16.1439C16.7528 15.8242 17.1837 15.1142 17.3793 14.3259C17.5749 13.5376 17.5259 12.7084 17.2387 11.9487C16.9516 11.1889 16.44 10.5346 15.772 10.0726C15.1039 9.6107 14.3111 9.36308 13.4989 9.36269ZM22.4989 12.3627C22.7538 12.363 22.9989 12.4606 23.1843 12.6355C23.3696 12.8105 23.4811 13.0496 23.4961 13.3041C23.511 13.5585 23.4282 13.8091 23.2646 14.0045C23.101 14.2 22.869 14.3256 22.6159 14.3557L22.4989 14.3627H21.4989C21.244 14.3624 20.9989 14.2648 20.8135 14.0898C20.6282 13.9149 20.5167 13.6757 20.5017 13.4213C20.4868 13.1669 20.5696 12.9163 20.7332 12.7209C20.8967 12.5254 21.1288 12.3998 21.3819 12.3697L21.4989 12.3627H22.4989ZM5.49889 12.3627C5.75377 12.363 5.99892 12.4606 6.18426 12.6355C6.3696 12.8105 6.48113 13.0496 6.49606 13.3041C6.511 13.5585 6.42822 13.8091 6.26463 14.0045C6.10104 14.2 5.86899 14.3256 5.61589 14.3557L5.49889 14.3627H4.49889C4.24401 14.3624 3.99886 14.2648 3.81352 14.0898C3.62819 13.9149 3.51666 13.6757 3.50172 13.4213C3.48678 13.1669 3.56957 12.9163 3.73316 12.7209C3.89675 12.5254 4.1288 12.3998 4.38189 12.3697L4.49889 12.3627H5.49889ZM7.84189 6.29169L8.54889 6.99869C8.73105 7.1873 8.83184 7.4399 8.82957 7.7021C8.82729 7.96429 8.72212 8.21511 8.53671 8.40051C8.3513 8.58592 8.10049 8.69109 7.83829 8.69337C7.5761 8.69565 7.32349 8.59485 7.13489 8.41269L6.42789 7.7057C6.24573 7.51709 6.14494 7.26449 6.14722 7.00229C6.1495 6.7401 6.25467 6.48928 6.44007 6.30388C6.62548 6.11847 6.87629 6.0133 7.13849 6.01102C7.40069 6.00874 7.65329 6.10954 7.84189 6.29169ZM19.1559 6.29169C19.3358 6.11235 19.5773 6.00822 19.8313 6.00047C20.0852 5.99271 20.3326 6.08191 20.5232 6.24994C20.7137 6.41798 20.8332 6.65225 20.8573 6.90517C20.8814 7.15809 20.8083 7.4107 20.6529 7.61169L20.5699 7.7057L19.8629 8.41269C19.6829 8.59204 19.4415 8.69617 19.1875 8.70392C18.9336 8.71168 18.6862 8.62248 18.4956 8.45445C18.305 8.28641 18.1856 8.05214 18.1615 7.79922C18.1374 7.5463 18.2105 7.29369 18.3659 7.09269L18.4489 6.99869L19.1559 6.29169Z" fill="currentColor"/>
<path d="M11.2718 3.28307C11.0977 3.46812 11.0006 3.7125 11.0001 3.96657L11.0001 4.96642L11.0079 5.09158C11.0402 5.34359 11.1671 5.57389 11.363 5.7357C11.5589 5.8975 11.809 5.97869 12.0626 5.96275C12.3161 5.94682 12.5541 5.83497 12.7282 5.64992C12.9023 5.46486 12.9994 5.22049 12.9998 4.96642L12.9998 3.96657L12.9921 3.84141C12.9598 3.5894 12.8329 3.3591 12.637 3.19729C12.4411 3.03548 12.191 2.9543 11.9374 2.97023C11.6839 2.98617 11.4459 3.09802 11.2718 3.28307Z" fill="#005773" fill-opacity="0.56"/>
</g>
<defs>
<clipPath id="clip0_7_7">
<rect width="24" height="24" />
</clipPath>
</defs>
</svg>
