<svg width="21" height="21" viewBox="0 0 21 21"  xmlns="http://www.w3.org/2000/svg">
<g clip-path="url(#clip0_7_13)">
<path d="M12.7969 5.57813C12.287 5.57818 11.7788 5.63736 11.2826 5.7545C11.135 5.53883 10.9704 5.3353 10.7904 5.14582L11.4114 4.25825C11.5612 4.04438 11.6199 3.77978 11.5746 3.52264C11.5293 3.2655 11.3837 3.03688 11.1698 2.88709C10.9559 2.7373 10.6913 2.6786 10.4342 2.72391C10.177 2.76922 9.94843 2.91481 9.79864 3.12868L9.17684 4.01954C8.6001 3.767 7.98017 3.62775 7.35083 3.60938L7.16215 2.54297C7.11227 2.29021 6.96529 2.06708 6.75275 1.92147C6.54021 1.77586 6.27905 1.71939 6.02533 1.76416C5.77162 1.80893 5.54557 1.95139 5.39571 2.16095C5.24584 2.37051 5.18411 2.63048 5.22375 2.88504L5.41243 3.95145C4.82747 4.18392 4.29253 4.52643 3.83661 4.96043L2.94575 4.33618C2.73189 4.18639 2.46728 4.12769 2.21014 4.17299C1.953 4.2183 1.72439 4.3639 1.57459 4.57776C1.4248 4.79162 1.36611 5.05623 1.41141 5.31337C1.45672 5.57051 1.60231 5.79912 1.81618 5.94891L2.70704 6.57153C2.45381 7.14776 2.31453 7.76756 2.29688 8.39672L1.23047 8.58539C0.987858 8.6279 0.769992 8.75981 0.619882 8.95509C0.469772 9.15038 0.398328 9.39484 0.419653 9.64023C0.440977 9.88561 0.55352 10.1141 0.735066 10.2805C0.916612 10.447 1.15397 10.5394 1.40028 10.5394C1.45801 10.5393 1.51564 10.5343 1.57254 10.5246L2.63895 10.3359C2.71947 10.5403 2.81375 10.739 2.92114 10.9307C2.29837 11.5804 1.88018 12.3988 1.71849 13.2841C1.55681 14.1695 1.65876 15.0828 2.01169 15.9108C2.36461 16.7387 2.95296 17.4447 3.70367 17.9411C4.45438 18.4375 5.33438 18.7025 6.23438 18.7031H12.7969C14.5374 18.7031 16.2066 18.0117 17.4373 16.781C18.668 15.5503 19.3594 13.8811 19.3594 12.1406C19.3594 10.4001 18.668 8.73095 17.4373 7.50024C16.2066 6.26953 14.5374 5.57813 12.7969 5.57813ZM7.21876 5.57813C7.62657 5.57846 8.0299 5.66325 8.40333 5.82716C8.77676 5.99107 9.11219 6.23055 9.38848 6.53051C8.22076 7.23874 7.3018 8.29214 6.75856 9.54516C6.58453 9.52542 6.40952 9.51556 6.23438 9.51563C5.66377 9.51557 5.09816 9.62212 4.56668 9.82981C4.34627 9.3796 4.24407 8.8807 4.26973 8.38008C4.29539 7.87947 4.44806 7.39363 4.71336 6.96832C4.97865 6.54301 5.34785 6.19223 5.78616 5.94902C6.22448 5.7058 6.71749 5.57817 7.21876 5.57813ZM12.7969 16.7344H6.23438C5.53819 16.7344 4.87051 16.4578 4.37822 15.9655C3.88594 15.4733 3.60938 14.8056 3.60938 14.1094C3.60938 13.4132 3.88594 12.7455 4.37822 12.2532C4.87051 11.7609 5.53819 11.4844 6.23438 11.4844H6.25735C6.24833 11.5746 6.24094 11.6648 6.23602 11.7551C6.22079 12.0162 6.3099 12.2726 6.48373 12.468C6.65757 12.6633 6.9019 12.7816 7.16297 12.7969C7.42405 12.8121 7.68048 12.723 7.87585 12.5492C8.07123 12.3753 8.18954 12.131 8.20477 11.8699C8.22213 11.5651 8.26995 11.2628 8.34751 10.9676L8.35981 10.9225C8.58598 10.0956 9.03877 9.34838 9.66708 8.76518C10.2954 8.18199 11.0742 7.78604 11.9156 7.62201C12.757 7.45797 13.6276 7.5324 14.4289 7.83688C15.2303 8.14136 15.9306 8.66377 16.4508 9.34516C16.971 10.0265 17.2903 10.8398 17.3729 11.693C17.4554 12.5463 17.2978 13.4057 16.9178 14.1741C16.5378 14.9425 15.9506 15.5895 15.2224 16.0419C14.4943 16.4943 13.6541 16.7341 12.7969 16.7344Z" fill="currentColor"/>
</g>
<defs>
<clipPath id="clip0_7_13">
<rect width="21" height="21"/>
</clipPath>
</defs>
</svg>
