<svg width="18" height="18" viewBox="0 0 18 18" fill="none" xmlns="http://www.w3.org/2000/svg">
<g clip-path="url(#clip0_7_11)">
<path fill-rule="evenodd" clip-rule="evenodd" d="M3.48 0.599995C3.48 0.472691 3.42942 0.350601 3.33941 0.260584C3.24939 0.170566 3.1273 0.119995 2.99999 0.119995C2.87269 0.119995 2.7506 0.170566 2.66058 0.260584C2.57057 0.350601 2.51999 0.472691 2.51999 0.599995V1.32H1.79999C1.67269 1.32 1.5506 1.37057 1.46058 1.46058C1.37057 1.5506 1.32 1.67269 1.32 1.8C1.32 1.9273 1.37057 2.04939 1.46058 2.13941C1.5506 2.22942 1.67269 2.28 1.79999 2.28H2.51999V3C2.51999 3.06303 2.53241 3.12545 2.55653 3.18368C2.58066 3.24192 2.61601 3.29483 2.66058 3.33941C2.70516 3.38398 2.75807 3.41934 2.81631 3.44346C2.87454 3.46758 2.93696 3.48 2.99999 3.48C3.06303 3.48 3.12545 3.46758 3.18368 3.44346C3.24192 3.41934 3.29483 3.38398 3.33941 3.33941C3.38398 3.29483 3.41934 3.24192 3.44346 3.18368C3.46758 3.12545 3.48 3.06303 3.48 3V2.28H4.2C4.3273 2.28 4.44939 2.22942 4.53941 2.13941C4.62942 2.04939 4.68 1.9273 4.68 1.8C4.68 1.67269 4.62942 1.5506 4.53941 1.46058C4.44939 1.37057 4.3273 1.32 4.2 1.32H3.48V0.599995ZM7.08 4.2C7.08 4.13696 7.06758 4.07454 7.04346 4.01631C7.01933 3.95807 6.98398 3.90516 6.93941 3.86058C6.89483 3.81601 6.84192 3.78066 6.78368 3.75653C6.72545 3.73241 6.66303 3.72 6.59999 3.72C6.53696 3.72 6.47454 3.73241 6.41631 3.75653C6.35807 3.78066 6.30516 3.81601 6.26058 3.86058C6.21601 3.90516 6.18066 3.95807 6.15653 4.01631C6.13241 4.07454 6.11999 4.13696 6.11999 4.2V4.92H5.39999C5.33696 4.92 5.27454 4.93241 5.21631 4.95653C5.15807 4.98066 5.10516 5.01601 5.06058 5.06058C5.01601 5.10516 4.98066 5.15807 4.95653 5.21631C4.93241 5.27454 4.91999 5.33696 4.91999 5.4C4.91999 5.46303 4.93241 5.52545 4.95653 5.58368C4.98066 5.64192 5.01601 5.69483 5.06058 5.73941C5.10516 5.78398 5.15807 5.81933 5.21631 5.84346C5.27454 5.86758 5.33696 5.88 5.39999 5.88H6.11999V6.6C6.11999 6.66303 6.13241 6.72545 6.15653 6.78368C6.18066 6.84192 6.21601 6.89483 6.26058 6.93941C6.30516 6.98398 6.35807 7.01934 6.41631 7.04346C6.47454 7.06758 6.53696 7.08 6.59999 7.08C6.66303 7.08 6.72545 7.06758 6.78368 7.04346C6.84192 7.01934 6.89483 6.98398 6.93941 6.93941C6.98398 6.89483 7.01933 6.84192 7.04346 6.78368C7.06758 6.72545 7.08 6.66303 7.08 6.6V5.88H7.79999C7.9273 5.88 8.04939 5.82942 8.13941 5.73941C8.22942 5.64939 8.27999 5.5273 8.27999 5.4C8.27999 5.27269 8.22942 5.1506 8.13941 5.06058C8.04939 4.97057 7.9273 4.92 7.79999 4.92H7.08V4.2ZM2.27999 7.8C2.27999 7.67269 2.22942 7.5506 2.13941 7.46058C2.04939 7.37057 1.9273 7.32 1.79999 7.32C1.67269 7.32 1.5506 7.37057 1.46058 7.46058C1.37057 7.5506 1.32 7.67269 1.32 7.8V8.52H0.599995C0.472691 8.52 0.350601 8.57057 0.260584 8.66058C0.170566 8.7506 0.119995 8.87269 0.119995 9C0.119995 9.1273 0.170566 9.24939 0.260584 9.33941C0.350601 9.42942 0.472691 9.48 0.599995 9.48H1.32V10.2C1.32 10.3273 1.37057 10.4494 1.46058 10.5394C1.5506 10.6294 1.67269 10.68 1.79999 10.68C1.9273 10.68 2.04939 10.6294 2.13941 10.5394C2.22942 10.4494 2.27999 10.3273 2.27999 10.2V9.48H2.99999C3.1273 9.48 3.24939 9.42942 3.33941 9.33941C3.42942 9.24939 3.48 9.1273 3.48 9C3.48 8.87269 3.42942 8.7506 3.33941 8.66058C3.24939 8.57057 3.1273 8.52 2.99999 8.52H2.27999V7.8ZM10.2528 1.1784L9.89519 1.1304C9.63959 1.1016 9.4872 1.3992 9.6348 1.6104C10.5543 2.93424 11.046 4.50812 11.0436 6.12C11.0429 8.14611 10.266 10.095 8.87255 11.5658C7.47912 13.0367 5.57511 13.9178 3.552 14.028C3.2952 14.0424 3.1524 14.3448 3.3324 14.5284C3.4146 14.6126 3.49862 14.695 3.58439 14.7756L3.67079 14.8548L3.9828 15.126L4.2084 15.3036L4.35359 15.4116L4.57799 15.5688L4.7892 15.7068C4.93319 15.798 5.082 15.8856 5.23319 15.9672L5.54999 16.1292L5.862 16.2732L6.22559 16.4196L6.51839 16.5228C6.94978 16.6647 7.39263 16.7691 7.84199 16.8348L8.22239 16.8828L8.54279 16.9068C9.69467 16.974 10.8473 16.7887 11.9201 16.3639C12.9929 15.9391 13.9599 15.2851 14.7535 14.4475C15.5471 13.6099 16.1481 12.609 16.5144 11.5149C16.8808 10.4207 17.0036 9.25977 16.8744 8.1132L16.83 7.7808C16.7404 7.19935 16.5858 6.62979 16.3692 6.0828L16.2336 5.7612L16.1412 5.562L16.0524 5.3844C15.8621 5.01454 15.6431 4.66025 15.3972 4.3248L15.2136 4.0848L14.9748 3.7968L14.7792 3.5808L14.6352 3.432L14.4432 3.2424L14.1756 3.0024L13.7916 2.6904L13.4976 2.478L13.1472 2.25L12.762 2.0268L12.3684 1.8288L12.2328 1.7664L11.9448 1.6452L11.6136 1.5204L11.3112 1.422L10.9212 1.314L10.6032 1.242L10.2528 1.1784ZM12.4848 6.36C12.4857 5.16861 12.2525 3.98865 11.7984 2.8872C13.4129 3.64274 14.6612 5.00872 15.2686 6.68462C15.876 8.36052 15.7927 10.2091 15.0372 11.8236C14.2816 13.4381 12.9157 14.6864 11.2398 15.2938C9.56387 15.9012 7.71533 15.8179 6.10079 15.0624C7.83154 14.5171 9.36057 13.4685 10.4928 12.0504C10.6045 12.2041 10.762 12.3185 10.9427 12.3771C11.1234 12.4357 11.3181 12.4356 11.4987 12.3767C11.6794 12.3177 11.8367 12.2031 11.9481 12.0492C12.0595 11.8953 12.1193 11.71 12.1188 11.52C12.119 11.3158 12.0497 11.1176 11.9223 10.958C11.795 10.7984 11.6171 10.6868 11.418 10.6416C11.4924 10.5024 11.5644 10.3596 11.6316 10.2156C11.8289 10.3377 12.0519 10.4123 12.283 10.4336C12.514 10.455 12.7469 10.4224 12.9632 10.3385C13.1796 10.2546 13.3735 10.1216 13.5297 9.95007C13.686 9.77853 13.8003 9.57307 13.8637 9.34985C13.9271 9.12664 13.9379 8.89176 13.8951 8.66368C13.8524 8.43561 13.7573 8.22056 13.6174 8.03546C13.4775 7.85035 13.2965 7.70023 13.0887 7.59691C12.8809 7.49358 12.652 7.43987 12.42 7.44C12.4608 7.086 12.4824 6.726 12.4824 6.36H12.4848Z" fill="currentColor"/>
</g>
<defs>
<clipPath id="clip0_7_11">
<rect width="18" height="18" />
</clipPath>
</defs>
</svg>
