<svg width="128" height="128" viewBox="0 0 128 128" fill="none" xmlns="http://www.w3.org/2000/svg">
<path d="M64 127.05C95.4802 127.05 121 101.53 121 70.05C121 38.5698 95.4802 13.05 64 13.05C32.5198 13.05 7 38.5698 7 70.05C7 101.53 32.5198 127.05 64 127.05Z" fill="#19699D"/>
<path d="M64 114.85C39.3 114.85 19.2 94.76 19.2 70.05C19.2 45.35 39.29 25.26 64 25.26C88.7 25.26 108.79 45.36 108.79 70.05C108.8 94.76 88.7 114.85 64 114.85Z" fill="white"/>
<path d="M64 20.48C36.66 20.48 14.42 42.73 14.42 70.06C14.42 97.4 36.66 119.64 64 119.64C91.34 119.64 113.58 97.4 113.58 70.06C113.58 42.72 91.34 20.48 64 20.48ZM64 114.85C39.3 114.85 19.2 94.76 19.2 70.05C19.2 45.35 39.29 25.26 64 25.26C88.7 25.26 108.79 45.36 108.79 70.05C108.8 94.76 88.7 114.85 64 114.85Z" fill="#BEE8F1"/>
<path d="M68.63 64.08V43.54H67.57V31.98C67.57 30.44 66.32 29.19 64.78 29.19H63.21C61.67 29.19 60.42 30.44 60.42 31.98V43.54H59.36V64.08C57.19 65.76 55.93 68.56 56.57 71.64C57.18 74.58 59.55 76.94 62.5 77.5C67.34 78.42 71.58 74.74 71.58 70.05C71.59 67.61 70.42 65.47 68.63 64.08ZM61.62 71.64C61.57 71.56 61.53 71.47 61.49 71.39C61.27 70.99 61.14 70.54 61.14 70.05C61.14 69.57 61.27 69.11 61.49 68.71C61.97 67.81 62.91 67.19 64 67.19C65.09 67.19 66.03 67.82 66.51 68.72C66.72 69.12 66.86 69.57 66.86 70.05C66.86 70.54 66.73 70.99 66.51 71.39C66.47 71.48 66.43 71.57 66.38 71.64C66.07 72.1 65.64 72.46 65.13 72.68C65.12 72.69 65.1 72.69 65.09 72.7C64.76 72.83 64.39 72.91 64.01 72.91C63.62 72.91 63.26 72.83 62.93 72.7C62.92 72.69 62.9 72.69 62.89 72.68C62.36 72.46 61.93 72.1 61.62 71.64Z" fill="#2F2F2F"/>
<path d="M102.74 72.92C104.32 72.92 105.6 71.6395 105.6 70.06C105.6 68.4805 104.32 67.2 102.74 67.2C101.16 67.2 99.88 68.4805 99.88 70.06C99.88 71.6395 101.16 72.92 102.74 72.92Z" fill="#2F2F2F"/>
<path d="M98.98 53.16C99.6361 52.7792 100.115 52.1542 100.312 51.4216C100.508 50.689 100.407 49.9082 100.03 49.25C99.6494 48.5964 99.0263 48.1195 98.296 47.9229C97.5657 47.7263 96.7873 47.8259 96.13 48.2C95.4739 48.5808 94.9952 49.2058 94.7985 49.9384C94.6018 50.671 94.703 51.4518 95.08 52.11C95.2666 52.4356 95.5156 52.7212 95.8128 52.9503C96.11 53.1794 96.4495 53.3475 96.8119 53.4451C97.1743 53.5427 97.5523 53.5677 97.9244 53.5188C98.2964 53.4698 98.6552 53.3479 98.98 53.16ZM84.8 34.03C84.4753 33.8418 84.1165 33.7197 83.7444 33.6706C83.3723 33.6216 82.9941 33.6465 82.6317 33.7441C82.2692 33.8417 81.9297 34.0099 81.6325 34.2392C81.3353 34.4685 81.0864 34.7542 80.9 35.08C80.7125 35.4049 80.5909 35.7636 80.5422 36.1356C80.4935 36.5076 80.5186 36.8855 80.6161 37.2478C80.7136 37.61 80.8817 37.9495 81.1105 38.2467C81.3394 38.544 81.6247 38.7931 81.95 38.98C83.32 39.77 85.07 39.3 85.85 37.93C86.0379 37.6052 86.1598 37.2464 86.2088 36.8744C86.2577 36.5023 86.2327 36.1243 86.1351 35.7619C86.0375 35.3995 85.8694 35.06 85.6403 34.7628C85.4111 34.4656 85.1256 34.2166 84.8 34.03ZM43.2 34.02C42.5448 34.3991 42.0665 35.0223 41.8697 35.7532C41.6729 36.4841 41.7737 37.2632 42.15 37.92C42.3366 38.2456 42.5856 38.5312 42.8828 38.7603C43.18 38.9894 43.5195 39.1575 43.8819 39.2551C44.2443 39.3527 44.6223 39.3777 44.9944 39.3288C45.3664 39.2798 45.7252 39.1579 46.05 38.97C46.3751 38.7829 46.6599 38.5334 46.8883 38.2358C47.1166 37.9383 47.2839 37.5986 47.3806 37.2362C47.4772 36.8738 47.5013 36.4958 47.4514 36.1241C47.4016 35.7524 47.2787 35.3941 47.09 35.07C46.7125 34.4159 46.0911 33.9381 45.3619 33.7413C44.6328 33.5445 43.8554 33.6447 43.2 34.02Z" fill="#2F2F2F"/>
<path d="M32.9246 52.1076C33.7142 50.7396 33.2453 48.9905 31.8773 48.2009C30.5093 47.4113 28.7602 47.8802 27.9706 49.2482C27.181 50.6162 27.6499 52.3653 29.0179 53.1549C30.3859 53.9445 32.135 53.4756 32.9246 52.1076Z" fill="#2F2F2F"/>
<path d="M25.26 72.91C26.8395 72.91 28.12 71.6295 28.12 70.05C28.12 68.4705 26.8395 67.19 25.26 67.19C23.6805 67.19 22.4 68.4705 22.4 70.05C22.4 71.6295 23.6805 72.91 25.26 72.91Z" fill="#2F2F2F"/>
<path d="M29.02 86.95C28.3664 87.3306 27.8895 87.9537 27.6929 88.684C27.4963 89.4143 27.5958 90.1927 27.97 90.85C28.1569 91.1753 28.406 91.4606 28.7033 91.6895C29.0005 91.9183 29.34 92.0864 29.7022 92.1839C30.0645 92.2814 30.4424 92.3065 30.8144 92.2578C31.1864 92.2091 31.5451 92.0875 31.87 91.9C32.1958 91.7136 32.4815 91.4647 32.7108 91.1675C32.9401 90.8703 33.1083 90.5308 33.2059 90.1683C33.3035 89.8059 33.3284 89.4277 33.2794 89.0556C33.2303 88.6835 33.1082 88.3248 32.92 88C32.5413 87.3444 31.9181 86.8657 31.187 86.6689C30.456 86.4721 29.6767 86.5732 29.02 86.95Z" fill="#2F2F2F"/>
<path d="M47.1091 105.037C47.8987 103.669 47.4298 101.92 46.0618 101.131C44.6938 100.341 42.9447 100.81 42.1551 102.178C41.3655 103.546 41.8344 105.295 43.2024 106.085C44.5704 106.874 46.3195 106.405 47.1091 105.037Z" fill="#2F2F2F"/>
<path d="M64 111.66C65.5795 111.66 66.86 110.38 66.86 108.8C66.86 107.22 65.5795 105.94 64 105.94C62.4205 105.94 61.14 107.22 61.14 108.8C61.14 110.38 62.4205 111.66 64 111.66Z" fill="#2F2F2F"/>
<path d="M84.8031 106.086C86.1712 105.297 86.6401 103.547 85.8506 102.179C85.061 100.811 83.3119 100.342 81.9439 101.132C80.5759 101.922 80.1069 103.671 80.8964 105.039C81.686 106.407 83.4351 106.876 84.8031 106.086Z" fill="#2F2F2F"/>
<path d="M100.026 90.8567C100.814 89.4939 100.343 87.7484 98.9759 86.958C97.6083 86.1676 95.8612 86.6316 95.0736 87.9944C94.2859 89.3572 94.7561 91.1027 96.1236 91.8931C97.4912 92.6835 99.2383 92.2194 100.026 90.8567Z" fill="#2F2F2F"/>
</svg>
